<?xml version="1.0" encoding="UTF-8" standalone="no"?>
<svg
   xmlns:dc="http://purl.org/dc/elements/1.1/"
   xmlns:cc="http://creativecommons.org/ns#"
   xmlns:rdf="http://www.w3.org/1999/02/22-rdf-syntax-ns#"
   xmlns:svg="http://www.w3.org/2000/svg"
   xmlns="http://www.w3.org/2000/svg"
   xmlns:sodipodi="http://sodipodi.sourceforge.net/DTD/sodipodi-0.dtd"
   xmlns:inkscape="http://www.inkscape.org/namespaces/inkscape"
   version="1.1"
   id="svg2"
   xml:space="preserve"
   width="3790.6667"
   height="2666.6667"
   viewBox="0 0 3790.6667 2666.6667"
   sodipodi:docname="10172.eps"><metadata
     id="metadata8"><rdf:RDF><cc:Work
         rdf:about=""><dc:format>image/svg+xml</dc:format><dc:type
           rdf:resource="http://purl.org/dc/dcmitype/StillImage" /></cc:Work></rdf:RDF></metadata><defs
     id="defs6" /><sodipodi:namedview
     pagecolor="#ffffff"
     bordercolor="#666666"
     borderopacity="1"
     objecttolerance="10"
     gridtolerance="10"
     guidetolerance="10"
     inkscape:pageopacity="0"
     inkscape:pageshadow="2"
     inkscape:window-width="640"
     inkscape:window-height="480"
     id="namedview4" /><g
     id="g10"
     inkscape:groupmode="layer"
     inkscape:label="ink_ext_XXXXXX"
     transform="matrix(1.3333333,0,0,-1.3333333,0,2666.6667)"><g
       id="g12"
       transform="scale(0.1)"><path
         d="M 0,0 H 28430 V 20000 H 0 Z"
         style="fill:#ffffff;fill-opacity:1;fill-rule:nonzero;stroke:none"
         id="path14" /><path
         d="m 21292.7,15030 h 0.1 c 340.6,1132.1 1534.5,1773.7 2666.7,1433.1 1132.1,-340.7 1773.6,-1534.6 1433,-2666.7 v 0 c -340.7,-1132.1 -1534.6,-1773.7 -2666.7,-1433.1 -1132.1,340.7 -1773.7,1534.6 -1433.1,2666.7 m -701,82.3 c -385.4,-1516.9 535,-3064.5 2051.9,-3450 1516.8,-385.5 3064.4,535 3449.9,2051.8 385.5,1516.9 -535,3064.5 -2051.8,3450 -1516.9,385.5 -3064.5,-535 -3450,-2051.8"
         style="fill:#f7cc7f;fill-opacity:1;fill-rule:nonzero;stroke:none"
         id="path16" /><path
         d="m 20494.2,15137 c 193.4,760.9 671.4,1400.9 1346.1,1802.1 674.7,401.3 1465.3,515.8 2226.1,322.5 760.9,-193.4 1400.9,-671.4 1802.2,-1346.1 401.2,-674.7 515.7,-1465.3 322.4,-2226.1 -193.4,-760.9 -671.4,-1400.9 -1346.1,-1802.1 -674.7,-401.3 -1465.3,-515.8 -2226.1,-322.5 -760.8,193.4 -1400.8,671.4 -1802.1,1346.1 -401.3,674.7 -515.8,1465.3 -322.5,2226.1 m -1869.3,-29.1 c 13.4,-67.8 74.8,-91.5 226.2,-151.5 270.8,-107.5 541.8,-214.9 808.6,-331.7 42,-18.4 84,-83.9 89.2,-131.5 30.8,-283.6 44.5,-569.1 78.3,-852.2 10.4,-87.7 1.9,-134.4 -77,-183.9 -315.1,-198 -624.8,-404.9 -933,-606.3 77,-330.5 465.3,-1073.5 672.8,-1281.3 326.9,137.6 663,273.1 993.4,421.5 102.8,46.2 155.3,37.3 241,-44.6 198.7,-190 415.5,-362.4 634.4,-529.5 88.6,-67.7 135.9,-120.7 107.2,-242.6 -74.5,-316 -129.8,-636.5 -198.9,-953.8 -18.6,-85.3 -2.4,-138.6 81.8,-164.7 396.2,-122.6 792.5,-244.7 1188.7,-367.2 97.4,-30.1 112.4,50 136.7,107.3 123.1,290.3 247.8,580 361,874.2 42.5,110.4 99.5,146.8 219.5,150.5 317.5,10 634.4,40.6 975.9,64.8 202,-306.7 425,-645.3 654.2,-993.3 460.2,152.4 874.6,380.5 1267.1,682.3 -155.4,373.5 -310.9,747.1 -447.9,1076.3 235,297.8 458.9,568.8 666.2,851.9 60,81.9 107.1,95.3 197.1,75.6 312.6,-68.7 627.4,-127.6 940.5,-194.1 67.6,-14.4 117.3,-17 152,56.9 175.1,373.7 316.5,757.1 373.6,1169.1 12.7,91.9 -20.3,128.1 -96,159.4 -304.5,125.8 -606.7,257.4 -911.8,381.9 -73.9,30.2 -104.8,61.6 -111.5,151.7 -23.3,312.7 -60.1,624.8 -104.8,935.2 -11.4,79.4 13.8,110.2 69.6,147 311,204.8 620.5,411.9 938.4,623.5 -161.3,452.9 -367.1,873.4 -661.8,1259.9 -381,-158.5 -759.5,-316.1 -1121.7,-466.8 -305.2,253.1 -600.7,498.3 -916.9,760.5 56,279.6 122.9,601.2 184.4,923.8 50.4,264.8 88.3,230 -177.7,341.6 -25.4,10.7 -46.9,30.5 -70.2,46.1 -237.9,71.6 -475.9,143.2 -713.8,214.8 -55.6,6.3 -113.9,4 -166.3,20.6 -136.2,43.2 -212.9,12.2 -267.2,-133.7 -113.1,-304 -245.3,-601 -376.7,-897.8 -17.3,-38.9 -73.8,-79.4 -116.5,-84.8 -278.4,-35.2 -560.7,-46.4 -836.1,-96 -134.8,-24.3 -191.5,12.5 -258.1,117.6 -188.6,298.1 -389.5,588.3 -605.3,911.2 -426.7,-224.1 -843.1,-442.7 -1264.1,-663.8 33.1,-83.9 51.3,-132.5 71.3,-180.4 122.9,-295.3 243.3,-591.9 371.5,-885 36.4,-83.2 17.9,-130 -39.1,-197.7 -195.8,-232.6 -376.6,-477.8 -570.8,-711.8 -30.1,-36.3 -104.5,-61.8 -151.8,-53.6 -258.5,44.9 -514.6,104.1 -772.3,154.2 -208.5,40.5 -286.1,54.8 -352.1,-13.3 l -381.2,-1266.5"
         style="fill:#f7cc7f;fill-opacity:1;fill-rule:nonzero;stroke:none"
         id="path18" /><path
         d="m 3708.82,12180.5 c -282.56,563.7 -328.71,1203.6 -129.96,1802 198.74,598.3 618.61,1083.4 1182.25,1366 563.62,282.6 1203.56,328.7 1801.92,130 598.35,-198.8 1083.49,-618.6 1366.05,-1182.3 282.56,-563.6 328.71,-1203.5 129.96,-1801.9 -198.75,-598.4 -618.62,-1083.5 -1182.25,-1366 -563.63,-282.6 -1203.57,-328.8 -1801.92,-130 -598.35,198.7 -1083.49,618.6 -1366.05,1182.2 M 2589.05,11180.1 c 43.76,-34.1 93.45,-16.2 216.96,26.9 220.94,77.2 441.98,154.3 665.4,223.7 35.17,10.9 95.07,-6.8 123.29,-33 167.78,-155.9 326.18,-322.1 495.49,-476.3 52.48,-47.7 71.81,-80.6 49.98,-152.1 -87.27,-285.9 -166.54,-574.3 -247.87,-858.7 220.58,-160.1 846.89,-407.2 1082.12,-424.3 126.21,255.4 259.11,514.4 381.64,778.2 38.14,82.1 74.7,104.3 169.78,99.6 220.58,-10.9 442.83,-1.7 663.61,12 89.41,5.5 145.97,-1.9 192.61,-91 120.9,-231 255.79,-454.7 380.62,-683.7 33.55,-61.6 71.44,-85.5 136.28,-57 305.02,133.8 609.86,268 914.84,401.9 74.98,32.9 41.99,89.4 26.61,137 -77.87,241 -154.46,482.5 -240.32,720.6 -32.24,89.4 -16.74,141.5 54.14,206.8 187.56,173 363.85,358.2 558.52,552.3 283.87,-80 597.29,-168.4 919.45,-259.2 199.31,334.5 331.04,690.9 410.75,1080.5 -290.73,145 -581.55,290.1 -837.85,418 -13.79,304.4 -20.32,586.6 -43.22,867.5 -6.63,81.3 14.85,114.3 79.95,149.6 225.9,122.6 447.99,252.3 673.06,376.5 48.66,26.9 80.19,51.4 62.37,114.5 -90.06,319 -205.76,626.1 -387.72,906.3 -40.57,62.4 -79.64,67.1 -142.02,46.3 -251.08,-83.7 -503.76,-162.6 -754.47,-247.4 -60.74,-20.5 -96.01,-17.7 -147.47,33.5 -178.52,177.6 -364.93,347.8 -555.27,512.8 -48.63,42.2 -49.54,74.1 -34.97,125.8 81.16,287.9 160.2,576.3 242.02,872 -336.05,190.2 -682,337.3 -1064.19,417.1 -147.98,-296.5 -295.01,-591.2 -435.71,-873.1 -318.41,-6.8 -626.7,-13.3 -956.59,-20.2 -112.95,199.2 -241.39,429.6 -373.68,657.8 -108.58,187.3 -67.23,186.1 -287.45,114.1 -21.01,-6.9 -44.53,-6.1 -66.87,-8.9 -182.12,-81.6 -364.24,-163.2 -546.35,-244.8 -37.09,-25.4 -71.3,-57.5 -111.81,-75 -105.41,-45.4 -135.7,-104.5 -91.96,-221.6 91.12,-244 167.01,-493.9 243.18,-743.2 9.97,-32.7 -3.07,-87 -26.15,-112.7 -150.55,-167.8 -316.05,-323 -457.24,-497.9 -69.08,-85.6 -122.88,-93.1 -218.51,-64.2 -271.23,81.8 -545.82,152.4 -846.54,235 -141.35,-360.4 -279.25,-712 -418.69,-1067.6 64.19,-33.5 100.82,-53.4 138.1,-72 229.96,-114.7 458.91,-231.6 690.86,-342.1 65.86,-31.4 79.18,-69.5 80.17,-140.6 3.43,-244.2 22.56,-488.1 27.64,-732.3 0.79,-37.9 -31.01,-92.5 -64,-112.4 -180.63,-108.6 -367.22,-207.3 -550.06,-312.3 -147.92,-85 -202.54,-117.1 -206.85,-193.2 l 434.39,-969.5"
         style="fill:#50bfa5;fill-opacity:1;fill-rule:nonzero;stroke:none"
         id="path20" /><path
         d="m 5322.22,17644.4 89.78,164.8 -84.48,167.6 c -9.62,19.1 6.76,41 27.72,37 l 184.05,-34.7 132.84,132.4 c 15.13,15.1 40.93,6.2 43.66,-15 l 23.97,-186.3 166.58,-85.8 c 18.97,-9.8 18.54,-37.1 -0.74,-46.3 l -169.23,-80.4 -29.89,-185.4 c -3.4,-21.1 -29.47,-29.1 -44.12,-13.6 l -128.55,136.6 -185.06,-28.8 c -21.08,-3.3 -36.75,19.1 -26.53,37.9"
         style="fill:#f7cc7f;fill-opacity:1;fill-rule:nonzero;stroke:none"
         id="path22" /><path
         d="m 15397,16963.1 68.5,111.8 -109,44.2 -68.5,-111.8 z m -277.8,-99.8 76.7,124.5 -61.6,25 c -13.4,5.4 -19.9,20.8 -14.5,34.3 5.5,13.4 20.8,19.9 34.3,14.5 l 71,-28.8 68.5,111.8 -65.7,26.6 c -13.5,5.5 -20,20.9 -14.5,34.3 5.5,13.5 20.8,20 34.3,14.5 l 75.2,-30.5 79.6,128.1 c 6.7,10.8 20.3,15.3 32.2,10.5 l 11.5,-4.7 c 15,-6.1 21,-24.3 12.5,-38.1 l -74,-120.9 109,-44.2 79.6,128.1 c 6.8,10.9 20.4,15.3 32.2,10.5 l 12.6,-5.1 c 15,-6.1 21,-24.3 12.5,-38.1 l -74,-120.9 61.6,-24.9 c 13.4,-5.5 19.9,-20.8 14.5,-34.3 -5.5,-13.5 -20.8,-20 -34.3,-14.5 l -71,28.8 -67.5,-112.3 65.8,-26.6 c 13.4,-5.5 19.9,-20.8 14.5,-34.3 -5.5,-13.5 -20.9,-20 -34.3,-14.5 l -75.2,30.5 -81.3,-132.1 c -6.8,-10.9 -20.4,-15.4 -32.3,-10.6 l -13.4,5.5 c -15.1,6.1 -21.1,24.3 -12.6,38.2 l 76.7,124.5 -109,44.2 -81.3,-132 c -6.8,-11 -20.4,-15.5 -32.3,-10.6 l -13.4,5.4 c -15.1,6.1 -21.1,24.3 -12.6,38.2"
         style="fill:#07345a;fill-opacity:1;fill-rule:nonzero;stroke:none"
         id="path24" /><path
         d="m 15652.8,14231.4 c 92.8,493 567.7,817.5 1060.7,724.7 493.1,-92.7 817.5,-567.6 724.8,-1060.7 v 0 c -92.8,-493 -567.7,-817.5 -1060.7,-724.7 -493.1,92.7 -817.6,567.6 -724.8,1060.7 v 0 m -1025.5,464.3 -103.7,-551.6 c 8.6,-28 35.6,-35.2 102.2,-53.8 119.1,-33.1 238.3,-66.2 356.1,-103.5 18.6,-5.9 39.3,-31.6 43.6,-51.5 25.8,-118.2 44.4,-238.1 71.4,-356 8.4,-36.6 6.9,-56.6 -24.2,-81.1 -124.1,-97.8 -245.4,-199 -366.4,-297.8 47.4,-136 244.7,-432.1 341.6,-510.4 131.8,72.8 267.5,145.1 400.2,222.6 41.3,24.1 63.9,22.7 103.7,-8 92.4,-71.2 191.6,-134.2 291.5,-194.9 40.5,-24.5 62.8,-44.8 56.2,-97.5 -17.2,-136.7 -26.1,-274.4 -41,-411.4 -4,-36.8 5.3,-58.6 42,-65.8 172.6,-33.9 345.4,-67.6 518.1,-101.5 42.4,-8.3 45.1,26.2 52.8,51.5 38.9,128 78.5,255.9 113,385.1 13,48.5 35.4,66.4 85.8,73.4 133.6,18.5 265.9,45.7 408.9,71.3 99,-120.3 208.4,-253.2 320.8,-389.7 187.3,85 351.9,200 503.9,345 -82.4,150.6 -164.8,301.2 -237.4,434 85.8,136.2 168,260.6 242.7,389.4 21.7,37.3 40.9,45.1 79.8,40.8 135,-14.9 270.5,-25.6 405.6,-39.5 29.2,-3.1 50.2,-1.9 61.5,30.8 57.1,165.6 99.5,333.7 105.1,510.2 1.2,39.3 -14.4,53.1 -47.7,62.9 -134.2,39.4 -267.6,81.3 -401.9,120.1 -32.6,9.4 -47.1,21.2 -54,59 -23.9,130.9 -53.4,260.9 -86.3,389.9 -8.4,32.9 0.9,47.1 22.8,65.1 122,100.4 243.2,201.8 367.9,305.4 -88.5,183.8 -194.2,352 -336,501.8 -153.6,-84 -306.3,-167.6 -452.3,-247.5 -140.2,93.1 -275.9,183.2 -421.1,279.7 11,120.4 24.7,259.2 36.1,398.1 9.4,114 27,101 -90.3,136.1 -11.2,3.4 -21.2,10.8 -31.7,16.3 -103.6,19.5 -207.2,39 -310.9,58.5 -7.4,0 -14.9,-0.3 -22.4,-0.6 -16.5,-0.7 -33,-1.4 -48.7,1.8 -59.4,12.1 -90.4,-4.5 -106.7,-68.5 -34,-133.3 -76.4,-264.6 -118.5,-395.7 -5.6,-17.2 -27.6,-36.9 -45.4,-41.1 -115.9,-27.4 -234.5,-44.8 -348.5,-78.2 -55.8,-16.3 -81.3,-3.3 -114.1,38.1 -93.1,117.2 -190.9,230.7 -296.5,357.2 -170,-113.8 -335.8,-224.8 -503.5,-337 17.7,-33.9 27.6,-53.6 38.2,-72.9 65.2,-119.1 129.3,-238.8 196.6,-356.7 19.1,-33.5 13.4,-54.1 -7.6,-85.2 -72.1,-107 -137.4,-218.6 -208.8,-326.1 -11.1,-16.7 -41.3,-30.8 -61.6,-29.4 -111.1,7.3 -221.9,20.7 -332.9,30.3 -89.8,7.7 -123.2,10.2 -148,-21.5"
         style="fill:#f47458;fill-opacity:1;fill-rule:nonzero;stroke:none"
         id="path26" /><path
         d="m 11020.8,17719.5 326.6,-39.4 -139.3,253.5 z"
         style="fill:#355389;fill-opacity:1;fill-rule:nonzero;stroke:none"
         id="path28" /><path
         d="m 12220.4,14904.6 c -10.2,-110.4 84.7,-211.2 189.9,-229.7 109,-19 206.1,52 243.6,152.4 74,198.1 -142.8,354.4 -260.3,234.5 -109.7,-111.9 -75,-278.1 43.4,-278.2 44.7,0 116.6,37.5 88.1,91.6 -6.4,12.2 -24.4,11.3 -31,0 -14.4,-24.4 -13.2,-25.3 -20,-30.8 -10.7,-8.6 -25.5,-11.4 -38.8,-11.2 -120.7,2.1 -40.5,278.1 101.7,211.2 78.1,-36.7 101.1,-125.5 74,-203 -26,-74.6 -96,-132.4 -177,-127.2 -96.7,6.2 -177.8,95.1 -184,190.4 -1.3,19.2 -27.8,18.9 -29.6,0"
         style="fill:#f47458;fill-opacity:1;fill-rule:nonzero;stroke:none"
         id="path30" /><path
         d="m 18186.2,18992.2 97.7,-42 c 0,0 163,36.4 181.2,67.1 18.3,30.6 28.9,108 51.7,108 22.8,0.1 65.9,-11.2 72.1,-65.4 4.4,-39.4 -61.7,-145.8 -53.7,-158.5 5,-8 60.4,-33.7 101.2,-51.8 26.9,-11.9 44.9,-37.7 46.8,-67.1 v -0.1 c 1.3,-19.8 -11.5,-37.9 -30.6,-43.3 l -29.7,-8.4 6.9,-30.3 c 5.1,-22.6 -9,-45 -31.4,-50.3 l -22.9,-5.3 5.7,-18.6 c 7.3,-24 -7.7,-49 -32.3,-53.8 l -19.9,-3.8 0.4,-5.2 c 1.6,-21.8 -13.7,-41.2 -35.1,-44.7 l -19.8,-3.2 -260,111.7 c -24.4,10.5 -46.4,25.8 -64.6,45.1 l -85,54.4 c -9.1,5.9 -12.6,17.6 -8.2,27.5 l 100.9,226.7 c 4.9,11 17.6,16 28.6,11.3"
         style="fill:#50bfa5;fill-opacity:1;fill-rule:nonzero;stroke:none"
         id="path32" /><path
         d="m 15441.5,14339.2 h -1764.8 c -180.6,0 -327.1,-146.4 -327.1,-327 V 13434 c 0,-180.6 146.5,-327.1 327.1,-327.1 h 1764.8 c 180.6,0 327,146.5 327,327.1 v 578.2 c 0,180.6 -146.4,327 -327,327"
         style="fill:#5184ce;fill-opacity:1;fill-rule:nonzero;stroke:none"
         id="path34" /><path
         d="m 13103.6,2191.9 -1869.2,-861.6 v -190.8 h 6656.7 v 190.8 l -1886,861.6 h -2901.5"
         style="fill:#466eb6;fill-opacity:1;fill-rule:nonzero;stroke:none"
         id="path36" /><path
         d="m 13103.6,2190.3 h 2902.6 v 3694.3 h -2902.6 z"
         style="fill:#466eb6;fill-opacity:1;fill-rule:nonzero;stroke:none"
         id="path38" /><path
         d="m 23338.4,4725.7 v 8330.7 c 0,395.8 -320.9,716.7 -716.7,716.7 H 6469.26 c -395.82,0 -716.7,-320.9 -716.7,-716.7 V 4725.7 H 23338.4"
         style="fill:#466eb6;fill-opacity:1;fill-rule:nonzero;stroke:none"
         id="path40" /><path
         d="m 11234.4,1139.5 h 6656.7 v 190.801 h -6656.7 z"
         style="fill:#335691;fill-opacity:1;fill-rule:nonzero;stroke:none"
         id="path42" /><path
         d="m 13103.6,2191.9 h 2901.5 v 433.504 h -2901.5 z"
         style="fill:#335691;fill-opacity:1;fill-rule:nonzero;stroke:none"
         id="path44" /><path
         d="m 5752.56,4725.7 v -1335 c 0,-277.6 183.54,-502.7 409.96,-502.7 H 22928.4 c 226.5,0 410,225.1 410,502.7 v 1335 H 5752.56"
         style="fill:#5184ce;fill-opacity:1;fill-rule:nonzero;stroke:none"
         id="path46" /><path
         d="m 14736.5,14011.9 c 0,-90.1 -73.1,-163.2 -163.3,-163.2 -90.2,0 -163.2,73.1 -163.2,163.2 0,90.2 73,163.3 163.2,163.3 90.2,0 163.3,-73.1 163.3,-163.3"
         style="fill:#184655;fill-opacity:1;fill-rule:nonzero;stroke:none"
         id="path48" /><path
         d="m 22926.7,5087.5 v 7946.6 c 0,208.3 -174.9,377.2 -390.7,377.2 H 6554.98 c -215.82,0 -390.76,-168.9 -390.76,-377.2 V 5087.5 H 22926.7"
         style="fill:#cce6ff;fill-opacity:1;fill-rule:nonzero;stroke:none"
         id="path50" /><path
         d="m 6900.34,5739.7 h 10075.1 v 7030.11 H 6900.34 Z"
         style="fill:#e9ffff;fill-opacity:1;fill-rule:nonzero;stroke:none"
         id="path52" /><path
         d="M 16975.4,11946.7 H 6900.34 v 823.1 H 16975.4 v -823.1"
         style="fill:#5184ce;fill-opacity:1;fill-rule:nonzero;stroke:none"
         id="path54" /><path
         d="m 17679.6,5687.9 v 0 3048.8 h 462.8 c 55.4,-168.2 130.4,-331.2 224.9,-485.8 V 8034 h -687.7 V 5687.9"
         style="fill:#afd0fb;fill-opacity:1;fill-rule:nonzero;stroke:none"
         id="path56" /><path
         d="m 21248.6,5687.9 h -687.7 v 1450.6 c 234.9,20 467.1,75.6 687.7,166.7 V 5687.9"
         style="fill:#9ac1f9;fill-opacity:1;fill-rule:nonzero;stroke:none"
         id="path58" /><path
         d="m 20288.2,5687.9 h -687.7 v 1570 c 222.9,-77 455,-119.2 687.7,-126.6 V 5687.9 M 20183.3,7406 c -198.3,17.1 -394.8,62.9 -582.8,137.4 v 0 c 187.9,-74.5 384.6,-120.3 582.8,-137.4"
         style="fill:#9ac1f9;fill-opacity:1;fill-rule:nonzero;stroke:none"
         id="path60" /><path
         d="m 22222.8,5687.9 h -687.7 v 1759.9 c 17.5,10.3 34.8,20.8 52,31.5 69.4,-58.9 139.6,-119.3 157.8,-141.4 0,0 258.1,-295.1 477.9,-538.5 V 5687.9 m 0,1485 -324.3,258.6 -0.3,-0.1 c -4.9,16.2 -58.3,190.8 -60.9,222 -0.1,1.8 -0.6,3.7 -1.3,5.6 15.5,12.8 30.8,25.9 46,39.1 l 340.8,-332.8 v -192.4 m 0,707.6 -83.2,81.4 c 28.9,34.8 56.6,70.1 83.2,106.1 v -187.5 m -407.3,124.3 c 0.6,0.6 1.3,1.3 1.9,1.9 -0.6,-0.6 -1.3,-1.3 -1.9,-1.9"
         style="fill:#9ac1f9;fill-opacity:1;fill-rule:nonzero;stroke:none"
         id="path62" /><path
         d="m 19327.8,5687.9 h -687.7 v 2201.5 c 29,-31.7 59.2,-62.8 90.3,-93.2 180.7,-176.5 382.7,-317.9 597.4,-424.2 V 5687.9 m 0,1987.6 c -136.1,78.8 -265.3,174.5 -384.5,287 119.2,-112.5 248.4,-208.1 384.5,-287 v 0 m -403.5,305.1 c 0,0.1 0.1,0 0,0.1 0.1,-0.1 0,0 0,-0.1"
         style="fill:#9ac1f9;fill-opacity:1;fill-rule:nonzero;stroke:none"
         id="path64" /><path
         d="m 17679.6,5687.9 h 687.699 V 8034 H 17679.6 Z"
         style="fill:#9ac1f9;fill-opacity:1;fill-rule:nonzero;stroke:none"
         id="path66" /><path
         d="m 7247.95,10414.2 h 9299.35 v 1193.57 H 7247.95 Z"
         style="fill:#badafb;fill-opacity:1;fill-rule:nonzero;stroke:none"
         id="path68" /><path
         d="m 10561.9,9769.3 h 5985.4 v 305.898 h -5985.4 z"
         style="fill:#badafb;fill-opacity:1;fill-rule:nonzero;stroke:none"
         id="path70" /><path
         d="M 10192.4,6544.8 H 7247.95 v 3530.4 H 10192.4 V 6544.8"
         style="fill:#5184ce;fill-opacity:1;fill-rule:nonzero;stroke:none"
         id="path72" /><path
         d="m 16547.3,9124.4 h -3223.5 c -77.2,119.2 -197,188.3 -333.6,204.5 -25.3,3 -48.8,4.4 -70.8,4.4 -185.4,0 -258.3,-101.7 -371.3,-208.9 h -1986.2 v 305.9 h 5985.4 v -305.9"
         style="fill:#badafb;fill-opacity:1;fill-rule:nonzero;stroke:none"
         id="path74" /><path
         d="m 16547.3,7189.7 h -5985.4 v 305.9 h 1068.4 c 112.7,-82.9 237.4,-116.4 364.8,-116.4 152.5,0 308.9,48 453.7,116.4 h 4098.5 v -305.9"
         style="fill:#badafb;fill-opacity:1;fill-rule:nonzero;stroke:none"
         id="path76" /><path
         d="m 10561.9,6544.8 h 5985.4 v 305.898 h -5985.4 z"
         style="fill:#badafb;fill-opacity:1;fill-rule:nonzero;stroke:none"
         id="path78" /><path
         d="m 3044.5,8809.2 5590.31,10.1 c 83.95,0.1 152.13,-67.8 152.28,-151.8 l 13.27,-7366.3 c 0.15,-84 -67.78,-152.1 -151.74,-152.3 l -5590.31,-10.1 c -83.95,-0.1 -152.13,67.8 -152.28,151.8 l -13.27,7366.3 c -0.15,84 67.78,152.1 151.74,152.3"
         style="fill:#f7cc7f;fill-opacity:1;fill-rule:nonzero;stroke:none"
         id="path80" /><path
         d="m 3199.68,8595.5 5280.72,9.5 12.97,-7200 -5280.72,-9.5 -12.97,7200"
         style="fill:#ffffff;fill-opacity:1;fill-rule:nonzero;stroke:none"
         id="path82" /><path
         d="m 6984.3,8918 c -0.06,32.4 -26.36,58.6 -58.74,58.5 l -2217.27,-4 c -32.38,0 -58.59,-26.3 -58.53,-58.7 l 0.42,-230.5 2334.54,4.2 -0.42,230.5"
         style="fill:#13375b;fill-opacity:1;fill-rule:nonzero;stroke:none"
         id="path84" /><path
         d="m 5817.45,8680.8 c -123.85,-0.2 -224.44,100 -224.66,223.8 -0.22,123.9 100,224.5 223.86,224.7 123.85,0.2 224.43,-100 224.66,-223.9 0.22,-123.8 -100,-224.4 -223.86,-224.6 z m -1.03,573.9 c -193.13,-0.3 -349.4,-157.2 -349.06,-350.3 0.35,-193.1 157.19,-349.4 350.32,-349 193.13,0.3 349.4,157.1 349.06,350.3 -0.35,193.1 -157.19,349.4 -350.32,349"
         style="fill:#13375b;fill-opacity:1;fill-rule:nonzero;stroke:none"
         id="path86" /><path
         d="m 6948.39,8972 c 21.06,-8.9 35.87,-29.7 35.91,-54 l 0.42,-230.5 -2334.54,-4.2 c 0.28,-159.6 129.94,-288.8 289.61,-288.5 l 1756.36,3.1 c 159.66,0.3 288.85,130 288.57,289.6 l -0.42,230.5 c -0.04,24.3 -14.85,45.1 -35.91,54"
         style="fill:#355389;fill-opacity:1;fill-rule:nonzero;stroke:none"
         id="path88" /><path
         d="m 4708.29,8972.5 v 0 c -20.24,0 -38.07,-10.3 -48.58,-25.9 10.51,15.6 28.34,25.9 48.58,25.9"
         style="fill:#9bc1f9;fill-opacity:1;fill-rule:nonzero;stroke:none"
         id="path90" /><path
         d="m 4652.36,8931.2 c 1.14,3.7 2.63,7.2 4.43,10.6 -1.8,-3.4 -3.29,-6.9 -4.43,-10.6"
         style="fill:#9bc1f9;fill-opacity:1;fill-rule:nonzero;stroke:none"
         id="path92" /><path
         d="m 7154.79,6510.4 689.32,1.2 -1.24,689.3 -689.32,-1.2 z m 720.06,-29.4 -750.69,-1.4 -1.35,750.7 750.69,1.4 1.35,-750.7"
         style="fill:#184655;fill-opacity:1;fill-rule:nonzero;stroke:none"
         id="path94" /><path
         d="m 7157.04,5261.3 689.32,1.2 -1.24,689.4 -689.32,-1.3 z m 720.06,-29.4 -750.68,-1.3 -1.36,750.6 750.69,1.4 1.35,-750.7"
         style="fill:#184655;fill-opacity:1;fill-rule:nonzero;stroke:none"
         id="path96" /><path
         d="m 7159.29,4012.2 689.32,1.2 -1.24,689.4 -689.32,-1.3 z m 720.06,-29.4 -750.69,-1.3 -1.35,750.6 750.69,1.4 1.35,-750.7"
         style="fill:#184655;fill-opacity:1;fill-rule:nonzero;stroke:none"
         id="path98" /><path
         d="m 7161.54,2763.1 689.32,1.3 -1.24,689.3 -689.32,-1.3 z m 720.06,-29.4 -750.69,-1.3 -1.35,750.7 750.68,1.3 1.36,-750.7"
         style="fill:#184655;fill-opacity:1;fill-rule:nonzero;stroke:none"
         id="path100" /><path
         d="m 3595.83,7100.6 3212.72,5.8 -0.2,108 -3212.72,-5.8 0.2,-108"
         style="fill:#9bc1f9;fill-opacity:1;fill-rule:nonzero;stroke:none"
         id="path102" /><path
         d="m 3596.38,6794.6 3212.72,5.8 -0.19,108 -3212.73,-5.7 0.2,-108.1"
         style="fill:#9bc1f9;fill-opacity:1;fill-rule:nonzero;stroke:none"
         id="path104" /><path
         d="m 3596.92,6488.6 3212.73,5.8 -0.19,108.1 -3212.73,-5.8 0.19,-108.1"
         style="fill:#9bc1f9;fill-opacity:1;fill-rule:nonzero;stroke:none"
         id="path106" /><path
         d="m 3598.15,5808.8 3212.72,5.8 -0.19,108.1 -3212.73,-5.8 0.2,-108.1"
         style="fill:#9bc1f9;fill-opacity:1;fill-rule:nonzero;stroke:none"
         id="path108" /><path
         d="m 3598.7,5502.9 3212.73,5.7 -0.2,108.1 -3212.72,-5.8 0.19,-108"
         style="fill:#9bc1f9;fill-opacity:1;fill-rule:nonzero;stroke:none"
         id="path110" /><path
         d="m 3599.25,5196.9 3212.73,5.8 -0.2,108 -3212.72,-5.8 0.19,-108"
         style="fill:#9bc1f9;fill-opacity:1;fill-rule:nonzero;stroke:none"
         id="path112" /><path
         d="m 3600.36,4584.9 3212.72,5.8 -0.19,108.1 -3212.73,-5.8 0.2,-108.1"
         style="fill:#9bc1f9;fill-opacity:1;fill-rule:nonzero;stroke:none"
         id="path114" /><path
         d="m 3600.91,4279 3212.72,5.7 -0.19,108.1 -3212.73,-5.8 0.2,-108"
         style="fill:#9bc1f9;fill-opacity:1;fill-rule:nonzero;stroke:none"
         id="path116" /><path
         d="m 3601.46,3973 3212.72,5.8 -0.19,108 -3212.73,-5.8 0.2,-108"
         style="fill:#9bc1f9;fill-opacity:1;fill-rule:nonzero;stroke:none"
         id="path118" /><path
         d="m 3602.56,3361 3212.73,5.8 -0.2,108.1 -3212.73,-5.8 0.2,-108.1"
         style="fill:#9bc1f9;fill-opacity:1;fill-rule:nonzero;stroke:none"
         id="path120" /><path
         d="m 3603.11,3055 3212.72,5.8 -0.19,108.1 -3212.72,-5.8 0.19,-108.1"
         style="fill:#9bc1f9;fill-opacity:1;fill-rule:nonzero;stroke:none"
         id="path122" /><path
         d="m 3603.66,2749.1 3212.73,5.8 -0.2,108 -3212.73,-5.8 0.2,-108"
         style="fill:#9bc1f9;fill-opacity:1;fill-rule:nonzero;stroke:none"
         id="path124" /><path
         d="m 3605.09,1958 3706.35,6.7 -0.19,108 -3706.35,-6.7 0.19,-108"
         style="fill:#9bc1f9;fill-opacity:1;fill-rule:nonzero;stroke:none"
         id="path126" /><path
         d="m 3605.56,1696.2 4437.26,8 -0.19,108 -4437.27,-8 0.2,-108"
         style="fill:#9bc1f9;fill-opacity:1;fill-rule:nonzero;stroke:none"
         id="path128" /><path
         d="m 7495.8,6603.7 -233.13,400 83.42,48.6 135.32,-232.2 220.89,530 89.13,-37.2 -295.63,-709.2"
         style="fill:#f47458;fill-opacity:1;fill-rule:nonzero;stroke:none"
         id="path130" /><path
         d="m 7498.08,5338.3 -233.13,399.9 83.42,48.6 135.32,-232.1 220.89,529.9 89.13,-37.1 -295.63,-709.2"
         style="fill:#f47458;fill-opacity:1;fill-rule:nonzero;stroke:none"
         id="path132" /><path
         d="m 7502.53,2864.1 -233.13,400 83.42,48.6 135.32,-232.1 220.9,529.9 89.13,-37.1 -295.64,-709.3"
         style="fill:#f47458;fill-opacity:1;fill-rule:nonzero;stroke:none"
         id="path134" /><path
         d="m 7762.26,4546.8 -67.23,67.9 -191.82,-190.1 -192.5,189.4 -66.98,-68.1 191.64,-188.5 -190.97,-189.3 67.23,-67.8 191.82,190.1 192.5,-189.4 66.98,68.1 -191.64,188.5 190.97,189.2"
         style="fill:#f47458;fill-opacity:1;fill-rule:nonzero;stroke:none"
         id="path136" /><path
         d="m 4406.97,1397.6 v 0 l 263.5,0.5 v 0 l -263.5,-0.5"
         style="fill:#dabd7e;fill-opacity:1;fill-rule:nonzero;stroke:none"
         id="path138" /><path
         d="m 4406.97,1397.6 c 124.4,80.2 233.4,182.2 321.52,300.6 l 194.1,0.4 c -55.21,-88.8 -120.92,-171.9 -196.52,-247.7 -18.11,-18.2 -36.68,-35.8 -55.6,-52.8 l -263.5,-0.5"
         style="fill:#e1ecfd;fill-opacity:1;fill-rule:nonzero;stroke:none"
         id="path140" /><path
         d="m 4800.43,1806.4 c 29.1,49.2 54.84,100.6 76.92,153.9 l 171.83,0.3 c -18.8,-52.6 -40.81,-104 -65.91,-153.9 l -182.84,-0.3 m 115.85,262 c 35.11,114.2 53.91,235.5 53.68,361.1 -0.2,111.4 -15.35,219.4 -43.54,322 l 165.06,0.3 c 24.92,-104.3 37.83,-212.1 38.03,-322 0.22,-123.6 -15.66,-244.8 -46.67,-361.1 l -166.56,-0.3 m -25.06,791 c -26.15,69.1 -58.41,135.3 -96.08,197.8 l 183.29,0.3 c 32.65,-63.7 60.22,-129.8 82.51,-197.8 l -169.72,-0.3 m -169.18,305.7 c -55,72.6 -117.97,138.9 -187.46,197.6 l 230.48,0.4 c 56.88,-61.8 107.55,-127.9 151.69,-197.6 l -194.71,-0.4 m -336.38,305.4 c -186.25,114.6 -405.36,180.8 -639.56,180.8 -0.74,0 -1.5,0 -2.24,0 -191.85,-0.4 -373.41,-45.1 -535.05,-124.4 l -0.24,134.6 -0.08,41.3 c 167.13,70.5 348.24,107.7 535.08,108 0.86,0 1.69,0 2.55,0 337.34,0 656.36,-120 908.23,-339.8 l -268.69,-0.5"
         style="fill:#e1ecfd;fill-opacity:1;fill-rule:nonzero;stroke:none"
         id="path142" /><path
         d="m 4534.58,3362.7 c -46.8,39.5 -96.53,75.5 -148.92,107.8 l 268.69,0.5 c 23.32,-20.4 46.07,-41.6 68.19,-63.6 14.54,-14.5 28.71,-29.3 42.52,-44.3 l -230.48,-0.4"
         style="fill:#89b3f7;fill-opacity:1;fill-rule:nonzero;stroke:none"
         id="path144" /><path
         d="m 4795.14,3057.2 c -22.49,37.3 -46.88,73.3 -73.1,107.9 l 194.71,0.4 c 22.23,-35.1 42.81,-71.2 61.68,-108 l -183.29,-0.3"
         style="fill:#89b3f7;fill-opacity:1;fill-rule:nonzero;stroke:none"
         id="path146" /><path
         d="m 4926.42,2751.5 c -10.1,36.7 -21.85,72.7 -35.2,107.9 l 169.72,0.3 c 11.63,-35.5 21.82,-71.5 30.54,-107.9 l -165.06,-0.3"
         style="fill:#89b3f7;fill-opacity:1;fill-rule:nonzero;stroke:none"
         id="path148" /><path
         d="m 4877.35,1960.3 c 14.6,35.2 27.62,71.3 38.93,108.1 l 166.56,0.3 c -9.74,-36.5 -20.97,-72.6 -33.66,-108.1 l -171.83,-0.3"
         style="fill:#89b3f7;fill-opacity:1;fill-rule:nonzero;stroke:none"
         id="path150" /><path
         d="m 4728.49,1698.2 c 25.82,34.7 49.85,70.8 71.94,108.2 l 182.84,0.3 c -18.55,-36.9 -38.79,-73 -60.68,-108.1 l -194.1,-0.4"
         style="fill:#89b3f7;fill-opacity:1;fill-rule:nonzero;stroke:none"
         id="path152" /><path
         d="m 3212.33,1572.2 v 0 l -0.17,95.8 v 0 l 0.17,-95.8 m -2.91,1612.6 -0.17,95.8 v 0 l 0.17,-95.8 v 0"
         style="fill:#dabd7e;fill-opacity:1;fill-rule:nonzero;stroke:none"
         id="path154" /><path
         d="m 3746.02,1419 c -195.81,0 -378.78,56.1 -533.69,153.2 l -0.17,95.8 c 151.14,-106.6 335.34,-169.3 533.86,-169.3 0.57,0 1.14,0 1.72,0 215.67,0.4 414.25,74.7 571.83,198.8 l 121.84,0.2 C 4260.8,1525.5 4016.53,1419.4 3747.88,1419 c -0.63,0 -1.23,0 -1.86,0 m 689.33,386.7 c 42.61,47.2 80.45,98.8 112.75,154 l 91.29,0.2 c -28.59,-54.5 -62.02,-106 -99.7,-154 l -104.34,-0.2 m 166.91,262.1 c 46.84,111.2 72.65,233.2 72.41,361.2 -0.2,113.2 -20.74,221.6 -58.13,321.9 l 84.63,0.1 c 34.35,-101 53.08,-209.3 53.28,-321.8 0.23,-127.2 -23.21,-249 -66.15,-361.2 l -86.04,-0.2 m -34.06,791.1 c -37.93,71.9 -85.03,138.3 -139.75,197.6 l 104.94,0.2 c 48.55,-60.6 90.23,-126.8 123.92,-197.7 l -89.11,-0.1 m -257.81,305.5 c -156.54,120.1 -352.25,191.6 -564.31,191.6 -0.56,0 -1.13,0 -1.69,0 -199.17,-0.4 -383.78,-63.8 -534.97,-171.2 l -0.17,95.8 c 117.07,73.9 250.34,124.5 393.19,144.9 l 0.12,-64.5 522.12,1 c 114.91,-46.8 219.35,-114.1 308.67,-197.4 l -122.96,-0.2"
         style="fill:#e1ecfd;fill-opacity:1;fill-rule:nonzero;stroke:none"
         id="path156" /><path
         d="m 3602.56,3361 -0.12,64.5 c 46.34,6.7 93.67,10.1 141.81,10.2 0.64,0 1.22,0 1.86,0 133.79,0 261.62,-26.2 378.57,-73.7 l -522.12,-1"
         style="fill:#89b3f7;fill-opacity:1;fill-rule:nonzero;stroke:none"
         id="path158" /><path
         d="m 4428.45,3056.5 c -36.17,39.2 -75.7,75.3 -118.06,107.9 l 122.96,0.2 c 35.87,-33.5 69.34,-69.6 100.04,-107.9 l -104.94,-0.2"
         style="fill:#89b3f7;fill-opacity:1;fill-rule:nonzero;stroke:none"
         id="path160" /><path
         d="m 4616.54,2750.9 c -13.86,37.2 -30.02,73.2 -48.34,108 l 89.11,0.1 c 16.61,-34.9 31.29,-71 43.86,-108 l -84.63,-0.1"
         style="fill:#89b3f7;fill-opacity:1;fill-rule:nonzero;stroke:none"
         id="path162" /><path
         d="m 4548.1,1959.7 c 20.32,34.7 38.42,70.8 54.16,108.1 l 86.04,0.2 c -14.22,-37.1 -30.57,-73.2 -48.91,-108.1 l -91.29,-0.2"
         style="fill:#89b3f7;fill-opacity:1;fill-rule:nonzero;stroke:none"
         id="path164" /><path
         d="m 4319.57,1697.5 c 41.58,32.7 80.35,69 115.78,108.2 l 104.34,0.2 c -30.14,-38.4 -62.98,-74.6 -98.28,-108.2 l -121.84,-0.2"
         style="fill:#89b3f7;fill-opacity:1;fill-rule:nonzero;stroke:none"
         id="path166" /><path
         d="m 4718.49,7562.6 v 359.7 h -143.35 v 31.5 h 331.88 v -31.5 h -143.36 v -359.7 h -45.17"
         style="fill:#184655;fill-opacity:1;fill-rule:nonzero;stroke:none"
         id="path168" /><path
         d="m 5273.27,7594.1 v -31.5 h -287.7 v 391.2 h 277.54 v -31.5 h -232.69 v -137 h 168.46 v -31.5 h -168.46 v -159.7 h 242.85"
         style="fill:#184655;fill-opacity:1;fill-rule:nonzero;stroke:none"
         id="path170" /><path
         d="m 5319.1,7656.2 38.94,13 c 13.09,-27.9 29.84,-48.5 50.25,-61.8 20.4,-13.3 45.44,-19.9 75.11,-19.9 30.55,0 55.15,6.9 73.81,20.9 18.65,13.9 27.99,32.2 27.99,55 0,18.1 -6.12,33.1 -18.33,44.8 -12.23,11.7 -32.95,22.4 -62.19,32.1 -15.93,5.1 -37.04,11.3 -63.34,18.5 -26.29,7.3 -43.15,12.7 -50.57,16.2 -23.35,10.9 -39.93,22.5 -49.74,34.9 -9.82,12.3 -14.74,27.6 -14.74,45.7 0,32.5 12.33,58 36.99,76.6 24.65,18.6 58.59,27.9 101.79,27.9 38.41,0 70.1,-7.6 95.09,-22.9 24.98,-15.2 44.01,-38.6 57.11,-70.2 l -37.97,-9.8 c -12.01,24.4 -27.44,42.4 -46.31,54 -18.88,11.6 -42.17,17.4 -69.88,17.4 -26.84,0 -48.6,-6.2 -65.3,-18.7 -16.69,-12.6 -25.04,-28.9 -25.04,-49 0,-15.1 5.4,-27.9 16.2,-38.3 10.81,-10.4 27.55,-18.9 50.25,-25.4 8.72,-2.6 21.38,-6.3 37.96,-10.8 47.57,-13.1 78.23,-23.4 91.98,-31 22.03,-11.6 38.01,-24.4 47.95,-38.2 9.92,-13.9 14.89,-30.2 14.89,-49.1 0,-34.2 -13.37,-61.4 -40.1,-81.7 -26.73,-20.3 -62.9,-30.4 -108.5,-30.4 -41.03,0 -74.79,8.1 -101.3,24.3 -26.51,16.2 -47.52,41.5 -63,75.9"
         style="fill:#184655;fill-opacity:1;fill-rule:nonzero;stroke:none"
         id="path172" /><path
         d="m 5817.58,7562.6 v 359.7 h -143.36 v 31.5 h 331.88 v -31.5 h -143.35 v -359.7 h -45.17"
         style="fill:#184655;fill-opacity:1;fill-rule:nonzero;stroke:none"
         id="path174" /><path
         d="m 6091.86,7562.6 v 391.2 h 44.84 v -391.2 h -44.84"
         style="fill:#184655;fill-opacity:1;fill-rule:nonzero;stroke:none"
         id="path176" /><path
         d="m 6317.05,7925.5 v -362.9 h -43.53 v 391.2 h 72.98 l 232.06,-330.1 v 330.1 h 43.53 v -391.2 h -47.78 l -257.26,362.9"
         style="fill:#184655;fill-opacity:1;fill-rule:nonzero;stroke:none"
         id="path178" /><path
         d="m 7032.86,7606.5 c -16.15,-17.3 -35.24,-30.2 -57.28,-38.7 -22.04,-8.6 -47.68,-12.9 -76.92,-12.9 -60.01,0 -105.71,17.4 -137.14,52 -31.42,34.7 -47.13,84.9 -47.13,150.6 0,65.1 16.04,115.3 48.11,150.6 32.08,35.4 77.47,53.1 136.16,53.1 43.42,0 78.12,-9.4 104.08,-28.1 25.97,-18.7 45.18,-48.1 57.61,-88.3 l -42.22,-7.1 c -10.47,31.5 -25.48,54.8 -45,69.8 -19.53,15 -44.58,22.5 -75.12,22.5 -43.64,0 -77.36,-14.6 -101.14,-43.8 -23.78,-29.2 -35.67,-70.6 -35.67,-124.2 0,-57.8 12.05,-101.5 36.16,-130.9 24.11,-29.4 59.95,-44.2 107.52,-44.2 35.78,0 64.59,8.4 86.41,25 21.82,16.7 32.73,38.7 32.73,66 v 41.8 h -120.45 v 29.4 h 168.9 v -186.5 h -39.61 v 43.9"
         style="fill:#184655;fill-opacity:1;fill-rule:nonzero;stroke:none"
         id="path180" /><path
         d="m 12715.9,17249.9 -101.9,-397.4 311.9,175.2 931.6,343.5 -686.6,19.1 c 0,0 -356,-42.7 -376.7,-57.4 -20.8,-14.7 -78.3,-83 -78.3,-83"
         style="fill:#50bfa5;fill-opacity:1;fill-rule:nonzero;stroke:none"
         id="path182" /><path
         d="m 12444.3,17529.8 1413.2,-158.6 -1141.6,-121.3 z"
         style="fill:#96d9c9;fill-opacity:1;fill-rule:nonzero;stroke:none"
         id="path184" /><path
         d="m 13121.2,16789.4 -334.5,341.4 1070.8,240.4 z"
         style="fill:#96d9c9;fill-opacity:1;fill-rule:nonzero;stroke:none"
         id="path186" /><path
         d="m 11902.2,16934.9 c 54.1,50 115.4,91.6 182.2,123.9 l 14.6,-30.2 c -63.8,-30.8 -122.4,-70.6 -174.1,-118.3 z m -419,-76 c 38.2,6.8 107.7,18 143.3,15.4 27.6,-1.9 52.8,-4.7 77,-8.3 l -5,-33.1 c -23.3,3.5 -47.7,6.1 -74.4,8 -23.3,1.7 -72.5,-3.8 -135,-15 z m 416.1,-95.5 -4,2.5 17.7,28.5 4.4,-2.8 c 64.6,-41.4 114.6,-103.4 137.2,-170 l -31.7,-10.7 c -20.2,59.5 -65.3,115.1 -123.6,152.5 z m -180,-150.2 c 3.7,31.9 11.7,64.3 23.8,96.2 6.5,17.2 14.2,34.5 23.1,51.5 l 29.7,-15.4 c -8.2,-15.9 -15.5,-32 -21.5,-47.9 -11.1,-29.4 -18.4,-59.1 -21.8,-88.3 -2.4,-20.7 -2.7,-41.9 -0.9,-62.9 l -33.4,-2.9 c -2,23.3 -1.7,46.7 1,69.7 z m -637.2,76.6 c 59.5,39.5 123.1,76.1 189.2,108.9 l 14.8,-30 c -64.7,-32.2 -127.1,-68.1 -185.4,-106.8 z m 739,-351.9 c -1.8,1.5 -3.6,2.9 -5.3,4.4 l 21.7,25.5 c 1.6,-1.3 3.1,-2.6 4.4,-3.7 0,0 0.9,-0.6 3.2,-1.4 17.5,-6.6 65.2,-12.3 93.8,0.4 24,10.7 44.5,29.1 61,54.6 l 28.2,-18.2 c -19.8,-30.6 -46,-53.8 -75.6,-67 -39.7,-17.6 -97.2,-9.5 -119.2,-1.2 -5.2,2 -9.2,4.1 -12.2,6.6 z m -1062.3,59.8 c 43.6,55.3 94.2,108.7 150.3,158.9 l 22.3,-25 c -54.6,-48.8 -103.9,-100.9 -146.4,-154.7 z m -184.4,-364 c 8.1,31.6 18.1,63.3 29.8,94.3 10.7,28.5 23.1,57 36.9,84.7 l 30,-14.8 c -13.3,-26.8 -25.2,-54.3 -35.6,-81.7 -11.2,-29.8 -20.9,-60.4 -28.7,-90.8 -2.3,-9 -4.4,-18 -6.5,-27 l -32.6,7.3 c 2.1,9.5 4.3,18.9 6.7,28"
         style="fill:#9bc1f9;fill-opacity:1;fill-rule:nonzero;stroke:none"
         id="path188" /><path
         d="m 12299.9,17091 c 36.1,5.4 72.2,7.9 107.4,7.2 l 0.6,33.5 c -37,0.7 -75,-1.9 -113,-7.6 l 5,-33.1"
         style="fill:#9bc1f9;fill-opacity:1;fill-rule:nonzero;stroke:none"
         id="path190" /><path
         d="m 9808.44,16592.8 c 20.16,-0.9 75.4,-19.4 156.2,-172 103.16,-195 253.96,-784 253.96,-784 l -450.1,-167.7 -57.83,123 -95.24,946.5 c 0,0 187.42,54.4 193.01,54.2"
         style="fill:#a34b3d;fill-opacity:1;fill-rule:nonzero;stroke:none"
         id="path192" /><path
         d="m 9213.44,16677.7 c 128.71,-0.2 447.18,-37.8 594.99,-85 0,0 108.59,-933.3 -97.76,-1642.5 -46.19,-158.7 38.2,-658 38.2,-658 l -1333.72,17.6 c 0,0 158,1207.1 98.47,1402.1 -59.52,195 -60.94,874.5 -60.94,874.5 0,0 9.14,1.5 299.66,51.7 135.51,23.4 323.68,39.7 461.1,39.6"
         style="fill:#b75742;fill-opacity:1;fill-rule:nonzero;stroke:none"
         id="path194" /><path
         d="m 9058.03,12559.9 c 0,0 29.5,-340.5 83.75,-434.8 54.26,-94.3 -2.85,-254.7 -5.71,-276.7 -2.85,-22 -114.2,-53.4 -291.24,-34.5 -177.02,18.8 -174.17,59.7 -159.89,125.7 14.27,66 108.5,150.9 114.21,213.8 5.71,62.8 -54.25,289.2 -54.25,289.2 l 313.13,117.3"
         style="fill:#f7a491;fill-opacity:1;fill-rule:nonzero;stroke:none"
         id="path196" /><path
         d="m 9598.39,14573.3 c 0,0 920.71,51.1 1126.31,-73.4 205.5,-124.5 -146.1,-735.6 -146.1,-735.6 0,0 -640.65,29.5 -1895.47,-42.9 -297.15,-17.2 -322.76,774.8 -267.2,840.3 55.57,65.5 1182.46,11.6 1182.46,11.6"
         style="fill:#e0973f;fill-opacity:1;fill-rule:nonzero;stroke:none"
         id="path198" /><path
         d="m 8822.75,11787.4 c -182.29,19.5 -159.75,109 -145.04,177 9.2,42.5 61.49,92.7 92.67,140.2 16.29,-13 42.8,-35.9 121.96,-59.3 82.21,-24.3 194.9,23.8 266.7,53.9 25.6,-95.3 26.77,-216.7 24.37,-235.2 -2.94,-22.6 -178.37,-96 -360.66,-76.6"
         style="fill:#dd513a;fill-opacity:1;fill-rule:nonzero;stroke:none"
         id="path200" /><path
         d="m 8923.37,13914.6 c 36.79,-278.3 218.91,-1664 218.91,-1664 l -422.58,-52.4 c 0,0 -519.67,1808.6 -493.02,2085.2 26.65,276.7 221.17,299.9 221.17,299.9 0,0 378.16,68.1 475.52,-668.7"
         style="fill:#f7cc7f;fill-opacity:1;fill-rule:nonzero;stroke:none"
         id="path202" /><path
         d="m 8438.16,16482.7 c 124.71,46.8 185.71,-1076.8 202.52,-1539.3 220.83,-21.2 605.74,-0.1 701.58,7 45.08,3.4 149.01,41.5 193.84,47.4 45.94,6 87.58,9.1 110.16,5.2 8.29,-1.4 238.47,-95.6 258.16,-116.2 24.43,-25.6 90.44,-90.2 79.3,-118.1 -11.14,-27.9 -126.97,77.8 -126.97,77.8 l -56.6,31.7 c 70.47,-68.8 204.85,-159.5 185.51,-192.5 -18.88,-32.2 -140.12,59.8 -226.54,122.5 74.12,-66.9 166.2,-186.7 144.99,-205.4 -19.07,-16.8 -123.81,121.9 -235.75,161.9 -41.48,14.8 -82.82,-26.2 -115.45,-31.2 -23.98,-3.6 -61.01,-11.3 -84.53,-4.7 l -121.2,34.4 c -41.28,-3.7 -42.32,-28.2 -84.01,-37 -48.4,-10.3 -127.81,-21.2 -189.45,-36.2 -354.95,-86.8 -473.33,-127 -582.01,-127 -329.17,0.2 -348.26,1809.1 -53.55,1919.7"
         style="fill:#f7a491;fill-opacity:1;fill-rule:nonzero;stroke:none"
         id="path204" /><path
         d="m 8201.51,15427.8 c -23.36,473.8 -19.94,1057.6 245.61,1157.3 104.78,39.3 289.49,-197.1 256.27,-1166.9 -141.76,-11.7 -349.88,-21.1 -501.88,9.6"
         style="fill:#a34b3d;fill-opacity:1;fill-rule:nonzero;stroke:none"
         id="path206" /><path
         d="m 10337.9,12229.7 c 0,0 -61,-107.8 -13,-198.1 48,-90.4 299.9,-223.3 326.2,-272.3 26.3,-49 16,-83.7 16,-83.7 l -748.19,183.4 57.33,225.5 69.96,155.9 291.7,-10.7"
         style="fill:#f7a491;fill-opacity:1;fill-rule:nonzero;stroke:none"
         id="path208" /><path
         d="m 10363.5,11983.3 c 0,0 -210.3,-36.4 -293.7,30.1 -83.45,66.5 -77.86,78.7 -108.62,67.3 -19.78,-7.3 -49.88,-97.1 -68.86,-160.4 -10.1,-33.6 10.14,-68.9 44.25,-77.3 l 779.03,-192.5 c 59.2,-11.4 98.4,25.5 58.5,73 -27.3,32.6 -61.5,57.8 -80.4,74.8 -58,52.3 -330.2,185 -330.2,185"
         style="fill:#dd513a;fill-opacity:1;fill-rule:nonzero;stroke:none"
         id="path210" /><path
         d="m 10264.6,14355 c 59.5,125.3 194.8,288.3 433,190.1 227.1,-93.7 288.1,-323.9 216.4,-559.6 -71.6,-235.7 -543.4,-1621.5 -559.9,-1812.1 l -376.69,-2.5 c 0,0 68.49,1097.3 85.29,1362.6 16.1,255.2 98.9,604.8 201.9,821.5"
         style="fill:#f7cc7f;fill-opacity:1;fill-rule:nonzero;stroke:none"
         id="path212" /><path
         d="M 10876.1,15631.4 H 9616.87 c -33.33,0 -63.33,-20.2 -75.98,-51.1 l -387.73,-948.9 h -694.22 c -19.42,0 -35.16,-15.8 -35.16,-35.3 0,-19.4 15.74,-35.2 35.16,-35.2 h 1975.86 c 54.3,0 103.5,32 125.8,81.7 l 390.4,872.7 c 24.4,54.5 -15.3,116.1 -74.9,116.1"
         style="fill:#184655;fill-opacity:1;fill-rule:nonzero;stroke:none"
         id="path214" /><path
         d="m 10198.1,15078.9 c -8.5,-42.7 -45.5,-71.2 -82.7,-63.7 -37.2,7.5 -60.5,48.1 -52,90.7 8.5,42.6 45.6,71.1 82.8,63.6 37.2,-7.4 60.4,-48 51.9,-90.6"
         style="fill:#ffffff;fill-opacity:1;fill-rule:nonzero;stroke:none"
         id="path216" /><path
         d="m 9512.7,17817.6 c -37.95,12.7 -75.32,27.2 -111.4,44.6 -40.78,19.6 -93.64,42.7 -127.02,47.8 -70.28,10.9 -191.01,3.6 -257.68,-68.7 -83.06,-90.1 -230.65,-16.3 -200.92,-488.2 33.66,-534.1 330.66,-475.5 337.87,-466.5 7.21,9.1 264.89,341.8 264.89,341.8 0,0 90.1,-197.1 90.1,-189.9 0,7 460.03,625.5 4.16,779.1"
         style="fill:#0e2e35;fill-opacity:1;fill-rule:nonzero;stroke:none"
         id="path218" /><path
         d="m 9287.22,16847.2 25.64,-190.9 c 0,0 57.43,-274.9 -16.45,-328 -73.9,-53 -314.23,335.9 -314.23,335.9 l 25.38,483.6 279.66,-300.6"
         style="fill:#f7a491;fill-opacity:1;fill-rule:nonzero;stroke:none"
         id="path220" /><path
         d="m 8999.36,16991.1 c 61.03,-165 206.41,-266.4 309.6,-305.7 l -21.74,161.8 -279.66,300.6 -8.2,-156.7"
         style="fill:#f47458;fill-opacity:1;fill-rule:nonzero;stroke:none"
         id="path222" /><path
         d="m 9272.04,17674.1 c 156.58,25.3 297.01,-100.7 293.1,-257.4 -1.7,-68.1 -7.29,-153.2 -21.44,-244.8 -34.05,-220.3 -184.36,-414.3 -283.76,-397 -99.4,17.3 -349.49,207.4 -305.45,520.9 27.19,193.6 153.24,351.8 317.55,378.3"
         style="fill:#f7a491;fill-opacity:1;fill-rule:nonzero;stroke:none"
         id="path224" /><path
         d="m 9023.46,17258.4 c -8.39,-48.5 -47.2,-82.2 -86.68,-75.3 -39.49,6.9 -64.7,51.8 -56.31,100.2 8.39,48.5 47.2,82.2 86.68,75.3 39.49,-6.9 64.7,-51.8 56.31,-100.2"
         style="fill:#f7a491;fill-opacity:1;fill-rule:nonzero;stroke:none"
         id="path226" /><path
         d="m 8967.15,17358.6 c 0,0 120.17,-29.9 164.77,47.4 44.6,77.3 204.08,244.1 406.8,174.9 202.72,-69.1 -178.4,168.2 -194.61,168.2 -16.22,0 -210.83,1.3 -210.83,1.3 0,0 -150.02,-123.3 -155.42,-136.9 -5.41,-13.6 -48.66,-161.4 -48.66,-161.4 l 37.95,-93.5"
         style="fill:#0e2e35;fill-opacity:1;fill-rule:nonzero;stroke:none"
         id="path228" /><path
         d="m 9187.02,17036.1 218.66,-41.8 c 0,0 -20.86,-82.4 -117.55,-66.8 -117.9,19 -101.11,108.6 -101.11,108.6"
         style="fill:#ffffff;fill-opacity:1;fill-rule:nonzero;stroke:none"
         id="path230" /><path
         d="m 11730.9,1980.3 c 0,0 -40.1,-279.2 -108.9,-369.3 -23.1,-30.2 -65.3,-68.5 -93,-123.1 -43.2,-85.1 -19.3,-211.7 12.5,-281.5 16.3,-35.8 -1.2,-35.7 36,-47.2 110.2,-34.2 227.3,23.3 274.2,129.4 26.2,59.3 49.2,138.3 53.8,237.9 11.8,253.5 90.1,382.4 90.1,382.4 l -264.7,71.4"
         style="fill:#f7a491;fill-opacity:1;fill-rule:nonzero;stroke:none"
         id="path232" /><path
         d="m 12935.4,1852.6 c 0,0 24.7,-314.8 4.7,-417.1 -10.8,-54.8 -70.6,-167.6 -43.1,-219.1 27.4,-51.6 58.8,-64.5 58.8,-64.5 l 711,-11.5 c 38.7,-0.6 13.1,24.4 -18.1,47.5 -51.1,37.8 -92.4,62.8 -255.6,142.3 -10.7,5.1 -49.5,29.9 -63.4,38.5 -35.5,21.8 -71.1,56.1 -101.8,90.4 -51,57.1 -55.5,334.4 -55.5,334.4 l -237,59.1"
         style="fill:#f7a491;fill-opacity:1;fill-rule:nonzero;stroke:none"
         id="path234" /><path
         d="m 13491.2,6037.1 c 0,0 89.5,-511.1 30.7,-846.2 -58.8,-335.1 -340.9,-3441.1 -340.9,-3441.1 l -313.6,-17.8 c 0,0 -65.8,1297.5 -54,1477.9 11.8,180.4 104.8,482.4 104.8,482.4 l -31.2,1047.5 395.7,1376.2 208.5,-78.9"
         style="fill:#e25a44;fill-opacity:1;fill-rule:nonzero;stroke:none"
         id="path236" /><path
         d="m 12569.6,6144.6 c 0,0 -247,-373.7 -305.7,-683 -58.8,-309.4 43.1,-1259.9 -70,-1665.3 -61.2,-219.4 -293.2,-558.3 -328.5,-841.8 -35.3,-283.5 -173.6,-1026.2 -173.6,-1026.2 l 313.4,-62.5 728.4,1854.8 571.4,1676.6 146.4,863.4 -881.8,-116"
         style="fill:#f47458;fill-opacity:1;fill-rule:nonzero;stroke:none"
         id="path238" /><path
         d="m 11873.1,1344.4 c -170.9,-31.3 -284.5,69.2 -343.7,144.4 -43.4,-85.2 -64.6,-212.4 -32.6,-282.4 28.1,-61.7 110.3,-59.9 175,-62.3 68.4,-2.6 121.4,35.7 155.3,95.6 15.9,28 32.3,62.8 46,104.7"
         style="fill:#f7cc7f;fill-opacity:1;fill-rule:nonzero;stroke:none"
         id="path240" /><path
         d="m 13329.6,1368.8 c -188.1,-48.5 -327.1,-15.6 -404.9,16 -20,-57.2 -46.6,-128.9 -32.5,-170.2 17.3,-50.7 41.9,-62.1 63.6,-62.7 171.7,-4.5 629.1,-10.7 760.1,-12.4 18.3,-0.3 28.4,21.2 16.6,35.4 -32.5,39 -388.9,185.3 -402.9,193.9"
         style="fill:#f7cc7f;fill-opacity:1;fill-rule:nonzero;stroke:none"
         id="path242" /><path
         d="m 14616.6,6920 c 13.1,27.9 -125,65.8 -129.5,95.8 -4.4,30 180.8,13.1 190,38.1 17.1,46 -201.6,31 -195.1,52.7 6.5,21.7 231.4,48.3 211.6,88.7 -19.8,40.4 -230.3,-51.9 -233.6,-25.5 -3.4,26.4 203.4,68.3 205.7,125.1 1.2,30.4 -344.4,-116.4 -380.6,-96.1 -36.2,20.4 57.2,154.1 29.2,178.3 -28,24.1 -149.2,-255.5 -171.1,-263.7 -21.8,-8.1 -496,-151.5 -657.2,-175.2 -13.6,54.6 -134.9,355 -146.5,406.5 -94.7,-53.6 -215.3,10.9 -312.2,-36.9 48.8,-172 158.3,-738.5 202,-764 133.3,-77.6 834.3,292.7 950.2,358.2 116,65.6 175.2,34.3 250.8,51 75.6,16.7 173.2,-60.8 186.3,-33"
         style="fill:#f38b80;fill-opacity:1;fill-rule:nonzero;stroke:none"
         id="path244" /><path
         d="m 13369.2,8588.8 c 35.2,160.3 69.8,321.6 -23.2,497.7 -75.2,142.5 -205.3,224.5 -355.8,242.4 -426.5,50.6 -335.3,-347.6 -931.4,-433.7 -185.2,-26.8 -357.3,-52.6 -512,-144.7 -279.2,-166.3 -384.6,-433.1 -199.4,-867.8 453.5,-1064.4 1538.5,-139.5 1704,48.8 164.2,186.8 295.1,554.1 317.8,657.3"
         style="fill:#0e2e35;fill-opacity:1;fill-rule:nonzero;stroke:none"
         id="path246" /><path
         d="m 12697.9,8082.8 c 0,0 -215.3,-24.4 -344.1,-164.5 -128.8,-140.1 208.2,-1266.4 231.6,-1444.8 23.4,-178.3 -224,-671.9 -224,-671.9 0,0 841,-167.1 1059.6,-22.8 0,0 19.2,1378.4 -4.3,1505.8 -23.4,127.3 -218.6,645.4 -265.4,696.3 -46.8,51 -453.4,101.9 -453.4,101.9"
         style="fill:#f7cc7f;fill-opacity:1;fill-rule:nonzero;stroke:none"
         id="path248" /><path
         d="m 12806.3,8517 c 0,0 -1.7,-9.6 -4.7,-25.8 -14.5,-78.2 -70.4,-337.3 -108.2,-408.6 -45.6,-86.1 156.3,-360.7 350.6,-327.1 57.8,9.9 -48.9,252.3 -43.8,277.9 9.8,49.2 23.1,116.2 36.8,184.9 7.7,38.8 15.4,78.1 22.8,115.1 20.7,105 37.7,190.9 37.7,190.9 l -291.2,-7.3"
         style="fill:#f7a491;fill-opacity:1;fill-rule:nonzero;stroke:none"
         id="path250" /><path
         d="m 13037.1,8219 v 0 c 1.5,7.8 3.1,15.6 4.6,23.4 -1.5,-7.8 -3.1,-15.6 -4.6,-23.4 m 10.1,50.7 c 4.2,21.6 8.5,43 12.6,63.7 20.7,105 37.7,190.9 37.7,190.9 v 0 c 0,0 -17,-85.9 -37.7,-190.9 -4.1,-20.7 -8.4,-42.1 -12.6,-63.7 m -246.4,216.9 c 0.2,1.6 0.5,3.1 0.8,4.6 2.7,14.5 4.3,23.6 4.7,25.5 -0.4,-1.9 -2,-11 -4.7,-25.5 -0.3,-1.5 -0.5,-3 -0.8,-4.6"
         style="fill:#815147;fill-opacity:1;fill-rule:nonzero;stroke:none"
         id="path252" /><path
         d="m 13037.1,8219 c -45,6.6 -91.9,28.4 -139,69.5 -51.4,44.9 -85,98.8 -105.3,156.3 3.1,16.2 5.8,30.4 8,41.8 0.3,1.6 0.5,3.1 0.8,4.6 2.7,14.5 4.3,23.6 4.7,25.5 0,0.2 0,0.3 0,0.3 l 291.2,7.3 c 0,0 -17,-85.9 -37.7,-190.9 -4.1,-20.7 -8.4,-42.1 -12.6,-63.7 -1.8,-9 -3.6,-18.1 -5.5,-27.3 -1.5,-7.8 -3.1,-15.6 -4.6,-23.4"
         style="fill:#f58c74;fill-opacity:1;fill-rule:nonzero;stroke:none"
         id="path254" /><path
         d="m 12981.5,9209 c 0,0 -118.8,-16.4 -204.8,-127.5 -86,-111 -178.8,-454.4 34.9,-641.1 213.7,-186.7 424.9,24.6 456.2,248.7 31.3,224.1 25,528 -286.3,519.9"
         style="fill:#f7a491;fill-opacity:1;fill-rule:nonzero;stroke:none"
         id="path256" /><path
         d="m 13330.1,8744.4 c -13.5,-54 -48.9,-90.5 -79,-81.5 -30.2,9 -43.8,60.1 -30.3,114.1 13.5,54.1 48.9,90.5 79.1,81.5 30.1,-9 43.7,-60.1 30.2,-114.1"
         style="fill:#f7a491;fill-opacity:1;fill-rule:nonzero;stroke:none"
         id="path258" /><path
         d="m 13113.3,9208.1 c 0,0 -279,-320.4 -410.2,-335.5 -131.1,-15.1 -148.4,-188.6 -148.4,-188.6 0,0 46.9,399.8 176.8,476.9 129.8,77.1 381.8,47.2 381.8,47.2"
         style="fill:#0e2e35;fill-opacity:1;fill-rule:nonzero;stroke:none"
         id="path260" /><path
         d="m 12746,8794.8 c 10.7,-58 -10.8,-111.2 -47.9,-118.8 -37.1,-7.6 -75.9,33.2 -86.5,91.2 -10.7,58 10.7,111.2 47.9,118.8 37.1,7.6 75.9,-33.2 86.5,-91.2"
         style="fill:#f7a491;fill-opacity:1;fill-rule:nonzero;stroke:none"
         id="path262" /><path
         d="m 12742,7168.8 901.8,-131.9 c 27.1,-4 45.8,-29.2 41.9,-56.3 l -176,-1203 c -4,-27.1 -29.2,-45.9 -56.3,-41.9 l -901.7,131.9 c -27.1,4 -45.9,29.2 -41.9,56.3 l 176,1203 c 3.9,27.1 29.1,45.9 56.2,41.9"
         style="fill:#184655;fill-opacity:1;fill-rule:nonzero;stroke:none"
         id="path264" /><path
         d="m 13414.6,7110.3 c 0.8,5.5 -3,10.6 -8.5,11.4 l -376.1,55 c -5.5,0.8 -10.6,-3 -11.4,-8.5 l -5.7,-39.1 396,-57.9 5.7,39.1"
         style="fill:#13375b;fill-opacity:1;fill-rule:nonzero;stroke:none"
         id="path266" /><path
         d="m 13210.8,7099.3 c -21,3.1 -35.6,22.7 -32.5,43.7 3.1,21 22.6,35.5 43.6,32.4 21,-3 35.6,-22.6 32.5,-43.6 -3.1,-21 -22.6,-35.5 -43.6,-32.5 z m 14.2,97.4 c -32.7,4.8 -63.2,-17.9 -68,-50.6 -4.8,-32.8 17.9,-63.2 50.7,-68 32.7,-4.8 63.2,17.9 68,50.6 4.7,32.8 -17.9,63.2 -50.7,68"
         style="fill:#13375b;fill-opacity:1;fill-rule:nonzero;stroke:none"
         id="path268" /><path
         d="m 13409.9,7120.3 c 3.3,-2 5.3,-5.9 4.7,-10 l -5.7,-39.1 -396,57.9 c -4,-27.1 14.8,-52.2 41.8,-56.2 l 298,-43.6 c 27.1,-4 52.2,14.8 56.2,41.9 l 5.7,39.1 c 0.6,4.1 -1.4,8 -4.7,10"
         style="fill:#355389;fill-opacity:1;fill-rule:nonzero;stroke:none"
         id="path270" /><path
         d="m 13134.2,8578.1 -202.9,1.1 c 0,0 4.2,-77.1 93.5,-80.2 108.8,-3.7 109.4,79.1 109.4,79.1"
         style="fill:#ffffff;fill-opacity:1;fill-rule:nonzero;stroke:none"
         id="path272" /><path
         d="m 12109.4,6861.2 326.7,-33.4 c 0,0 -5.3,-277.3 0.3,-309.2 0,0 558.7,-154.9 792.2,-196.9 0,0 106.4,60.3 149.4,79.4 43,19.2 158.6,40.1 184.2,43.4 25.6,3.4 16.8,-24.6 -5.1,-34.4 -22,-9.8 -78.8,-36.6 -94.9,-69.4 0,0 46.1,-5 70.5,5.9 24.4,10.8 58,33.9 58.6,45.8 0.5,11.9 6,40.7 14.1,39.2 2,-0.4 4.7,-9.9 7.5,-19.8 2.6,-9.3 5.3,-19 7.6,-28.5 4.1,-17 8.8,-41.8 10.7,-53 4.1,-25.4 -11.4,-95.7 -13.6,-120.6 -4,-45.6 -17,-65.8 -41.1,-77.4 -38.8,-13.5 -79.8,-22.1 -140.4,-28.4 -111.1,-11.5 -213.3,20.5 -257.9,25.5 -44.5,5 -756,75.6 -756,75.6 0,0 -282.8,40.7 -301.6,89.4 -18.7,48.6 -11.2,566.8 -11.2,566.8"
         style="fill:#f7a491;fill-opacity:1;fill-rule:nonzero;stroke:none"
         id="path274" /><path
         d="m 12393.2,7959 c 0,0 -103.1,-48.9 -193.7,-260.1 -86.2,-200.7 -111.5,-1202.3 -111.5,-1202.3 l 341.8,57 173.7,467 c 123.8,279.5 91.8,604.9 -88.6,851.7 -48.1,65.9 -92.4,105.6 -121.7,86.7"
         style="fill:#f7cc7f;fill-opacity:1;fill-rule:nonzero;stroke:none"
         id="path276" /><path
         d="m 18953.2,11319.9 h -1170.7 v 1450.6 h 1450.6 v -1271.7 c -96.6,-52.3 -190.1,-111.9 -279.9,-178.9"
         style="fill:#afd0fb;fill-opacity:1;fill-rule:nonzero;stroke:none"
         id="path278" /><path
         d="m 19489.8,12573.4 h 2829.9 v 197.109 h -2829.9 z"
         style="fill:#afd0fb;fill-opacity:1;fill-rule:nonzero;stroke:none"
         id="path280" /><path
         d="m 19489.8,12155.6 h 1909.8 v 197.109 h -1909.8 z"
         style="fill:#afd0fb;fill-opacity:1;fill-rule:nonzero;stroke:none"
         id="path282" /><path
         d="m 22031.8,11737.7 h -1273.3 c -140.2,25.9 -282.2,38.8 -424.1,38.8 -142,0 -283.8,-12.9 -423.7,-38.8 h -420.9 v 197.1 h 2542 v -197.1"
         style="fill:#afd0fb;fill-opacity:1;fill-rule:nonzero;stroke:none"
         id="path284" /><path
         d="m 23293.6,7954.8 c -59.3,48.2 -517.9,-153.1 -512.1,-223.1 5.8,-70 -320,-749.1 -320,-749.1 l -563,448.9 -0.3,-0.1 c -4.9,16.2 -58.3,190.8 -60.9,222 -2.7,32.8 -97.9,90.1 -142,81.7 -44.2,-8.4 37.7,-63.9 43.1,-74 14.7,-27.7 -42,-38.1 -42,-38.1 0,0 -160.8,51.5 -164.2,104 -3.5,52.5 -113.4,-91.8 -100.5,-111.9 12.6,-19.6 275.4,-231.3 313.2,-277.2 0,0 728.3,-832.5 780.1,-854.3 45.5,-19.1 207.7,267.8 361,458.3 153.3,190.4 592.9,862.2 407.6,1012.9"
         style="fill:#f7a491;fill-opacity:1;fill-rule:nonzero;stroke:none"
         id="path286" /><path
         d="m 24763,1833.2 c 0,0 100.1,-97.7 102.4,-133.5 2.2,-35.9 8.8,-419.8 -32,-455.6 -40.9,-35.8 -160.9,-61.2 -122.3,-101.6 29.1,-30.4 253.5,-23.9 402.2,-15.7 43.4,2.4 97.8,348.6 115,399.5 24.9,73.9 85.6,240.4 62.9,291.9 -11,25.1 -63.9,76.7 -138.5,124.9 -78.4,50.6 -153.4,163.4 -153.4,163.4 L 24763,1833.2"
         style="fill:#f48c7f;fill-opacity:1;fill-rule:nonzero;stroke:none"
         id="path288" /><path
         d="m 23726.3,1605.8 89.7,-253.7 c 6.7,-40 32.9,-139.1 32.9,-175.5 0,-136.9 -617.3,116.2 -479,176.9 12.5,5.4 51.8,49.3 55.9,95.9 6.4,71.8 -52,161.8 -52,161.8 l 352.5,-5.4"
         style="fill:#f7a491;fill-opacity:1;fill-rule:nonzero;stroke:none"
         id="path290" /><path
         d="m 22757.9,6316.8 c 0,0 -45,-453.5 -45,-460.3 0,-733.7 -145.4,-2166.7 -117.8,-2304.7 67.5,-336.4 793.7,-2052.6 793.7,-2052.6 l 392.5,46.9 -421.3,2073.9 98,808 266.4,1634.8 -966.5,254"
         style="fill:#50bfa5;fill-opacity:1;fill-rule:nonzero;stroke:none"
         id="path292" /><path
         d="m 24075.2,5915.6 74.4,-429.8 201.5,-1769.1 767.4,-1729.1 c 0,0 -108,-251.6 -267.2,-286.9 l -1221.3,1775.2 -758.7,2271.5 26.7,504.7 1177.2,-336.5"
         style="fill:#96d9c9;fill-opacity:1;fill-rule:nonzero;stroke:none"
         id="path294" /><path
         d="m 22601.4,7396.6 544.2,-55.5 c 0,0 25,446.2 25,659 0,258.2 -22,590.8 -53.2,583.6 -87.5,-20.1 -205.4,-68.4 -275.5,-164.8 -242.8,-333.6 -240.5,-1022.3 -240.5,-1022.3"
         style="fill:#b75742;fill-opacity:1;fill-rule:nonzero;stroke:none"
         id="path296" /><path
         d="m 22868.8,8045.6 c -11.4,-78.7 -220.7,-2218.9 -220.7,-2218.9 991,-478.7 1537.8,-85.3 1537.8,-85.3 0,0 -32.4,1502.9 6.4,1707.5 25.7,135.3 57.8,1034.7 -29.9,1059.8 -112.5,32.4 -241.6,66.7 -382.2,81.3 -120.1,12.5 -586.5,19.7 -670,-8.4 0,0 -193.5,-204.9 -241.4,-536"
         style="fill:#f47458;fill-opacity:1;fill-rule:nonzero;stroke:none"
         id="path298" /><path
         d="m 25147.9,1945.5 c 0,0 -230.7,-649.4 -320.9,-680.7 -24,-8.4 -139.1,-29.5 -160.8,-80.4 -6.5,-15.3 0,-66.5 0,-66.5 h 480.8 c 0,0 60.8,286.2 84.8,411.9 0,0 127.3,307.2 113.1,335.1 -14.1,27.9 -197,80.6 -197,80.6"
         style="fill:#f47458;fill-opacity:1;fill-rule:nonzero;stroke:none"
         id="path300" /><path
         d="m 23884,1131.4 -70.7,223.3 c 0,0 -148.5,-62.8 -222.7,-52.3 -74.2,10.5 -219.2,52.3 -219.2,52.3 -296.3,-97.5 -539,-144.8 -494.8,-223.3 H 23884"
         style="fill:#f47458;fill-opacity:1;fill-rule:nonzero;stroke:none"
         id="path302" /><path
         d="m 22525,6483.6 c -2.2,0.9 -10.3,7.3 -14.9,11.1 17.6,209.7 14.4,412.9 -51.4,481.5 1.6,3.3 16,33.9 31,65.6 76.3,-59 112.5,-215.7 98.3,-470.1 -1,-17.5 -6,-30.8 -10.1,-52.6 -22.1,-24.3 -42.1,-40 -52.9,-35.5"
         style="fill:#f7a491;fill-opacity:1;fill-rule:nonzero;stroke:none"
         id="path304" /><path
         d="m 23647.7,9003.7 63.8,-421 c 0,0 -233.2,-501.3 -372.5,-457.8 -116.8,36.5 -44.9,480 -44.9,480 0,0 63.7,238.2 44.6,357.4 -19.1,119.2 309,41.4 309,41.4"
         style="fill:#f7a491;fill-opacity:1;fill-rule:nonzero;stroke:none"
         id="path306" /><path
         d="m 23338.7,8962.3 c -19.1,119.2 309,41.4 309,41.4 l 5.3,-34.9 c -9.6,-23.4 -21.4,-43.4 -35.6,-58.7 -73.3,-78.9 -187.9,-126.2 -286.9,-129.8 9.9,64.2 16,133.1 8.2,182"
         style="fill:#f47458;fill-opacity:1;fill-rule:nonzero;stroke:none"
         id="path308" /><path
         d="m 23701.5,9599.3 c 9.3,3.4 74.3,-479.5 -49.1,-612.3 -123.5,-132.9 -364,-176.4 -450.3,-71.7 -95.5,115.7 -90.7,634.7 101.3,771.3 191.9,136.7 398.1,-87.3 398.1,-87.3"
         style="fill:#f7a491;fill-opacity:1;fill-rule:nonzero;stroke:none"
         id="path310" /><path
         d="m 23376.5,9944.9 c 148.3,-30.2 244.4,-120.9 279.8,-159.5 67.3,-8 158.9,-45.2 253.4,-201.8 116.3,-192.5 30.4,-405.8 -104.9,-510.4 -135.3,-104.7 -133.5,-225.5 -133.5,-225.5 l -21.4,62.5 c -15.7,47.4 -22.2,97.6 -16.9,147.3 3.2,29.8 9.5,62 21.9,88.5 32.5,69.9 -69.9,116.3 -98.7,174.4 -22.1,44.8 -23.2,147.2 -58,221.2 l -41.7,56.5 c 0,0 -96,74.8 -190,53.7 -93.9,-21.1 -80.4,331.9 110,293.1"
         style="fill:#0e2e35;fill-opacity:1;fill-rule:nonzero;stroke:none"
         id="path312" /><path
         d="m 23562.5,9234.5 c -0.9,-58.9 25.8,-107.1 59.9,-107.7 34,-0.6 62.3,46.7 63.3,105.6 1,58.9 -25.8,107.2 -59.8,107.7 -34,0.6 -62.4,-46.7 -63.4,-105.6"
         style="fill:#f7a491;fill-opacity:1;fill-rule:nonzero;stroke:none"
         id="path314" /><path
         d="m 23362,9098.4 -186.1,9.6 c 0,0 0.7,-70.9 82.4,-77.5 99.6,-8 103.7,67.9 103.7,67.9"
         style="fill:#ffffff;fill-opacity:1;fill-rule:nonzero;stroke:none"
         id="path316" /><path
         d="m 21839.2,7997.6 c 43.7,44.7 84.5,90.9 122.4,138 l 812.3,-793.2 c 49.9,-48.7 32.7,-147.3 -38.4,-220.1 -71.1,-72.9 -169.2,-92.4 -219.2,-43.6 l -812.2,793.2 c 46.2,39 91.4,80.9 135.1,125.7"
         style="fill:#0e2e35;fill-opacity:1;fill-rule:nonzero;stroke:none"
         id="path318" /><path
         d="m 20361.3,7398.3 c -24.4,0 -48.8,0.4 -73.1,1.3 v 233.7 l 225.7,-229.4 c -50.8,-3.7 -101.7,-5.6 -152.6,-5.6 m -760.8,145.1 c -93.3,37 -184.5,81 -272.7,132.1 v 934 l 272.7,-277.2 v -788.9 m -960.4,777.6 c -230.8,345.7 -346.7,745.6 -346.7,1145.1 0,62.2 2.8,124.4 8.4,186.3 l 338.3,-343.8 V 8321"
         style="fill:#c8e1fb;fill-opacity:1;fill-rule:nonzero;stroke:none"
         id="path320" /><path
         d="m 18640.1,8321 v 0 987.6 l 281,-285.8 h -281 V 8321"
         style="fill:#bcd8fa;fill-opacity:1;fill-rule:nonzero;stroke:none"
         id="path322" /><path
         d="m 20288.2,7399.6 c -35.1,1.2 -69.9,3.4 -104.9,6.4 -198.2,17.1 -394.9,62.9 -582.8,137.4 v 788.9 l 687.7,-699 v -233.7"
         style="fill:#b4d2f9;fill-opacity:1;fill-rule:nonzero;stroke:none"
         id="path324" /><path
         d="m 19327.8,7675.5 c -136.1,78.9 -265.3,174.5 -384.5,287 -6.3,6 -12.7,12 -19,18.1 0,0.1 0.1,0 0,0.1 -2.3,2.2 -4.7,4.6 -7.1,6.8 v 0 c -105.8,103.4 -198.2,215.2 -277.1,333.5 v 701.8 h 281 l 406.7,-413.3 v -934"
         style="fill:#b4d2f9;fill-opacity:1;fill-rule:nonzero;stroke:none"
         id="path326" /><path
         d="m 21248.6,7599.6 v 4.4 c 100.3,50.3 196.1,108.7 286.5,174.5 v -11 c -91.6,-64.3 -187.6,-120.3 -286.5,-167.9 m 286.5,730.6 -286.5,291.2 v 688.9 l 286.5,-291.2 v -688.9 m 687.7,266.7 v 46.8 c 77.3,182.6 129.5,379.6 151.8,587.1 6.8,64.1 10.6,127.7 11.6,190.9 l -163.4,166 v 270 h -265.5 l -708.7,720.3 v 433 h -425.9 l -489.3,497.3 c 0.8,0 1.6,0 2.4,0 0.1,0 0.2,0 0.3,0 0,0 0.1,0 0.2,0 516.9,-0.1 1035.2,-193.8 1436.7,-582.4 l 0.2,-0.1 c 1.1,-1.1 2.1,-2.1 3.3,-3.2 1.2,-1.2 2.4,-2.4 3.6,-3.6 415.2,-405.5 623.8,-942.4 623.9,-1478.6 0,-288.2 -60.3,-576.2 -181.2,-843.5 m -1661.9,723.5 -1614.1,1640.7 c -264.5,-246 -465.8,-562.5 -572.7,-924 90.4,312.6 256.8,607.8 499.7,856.5 226.6,232 495.2,398.5 782.2,499.2 -109.3,-39 -214.6,-87.1 -314.9,-143.5 l 1219.8,-1239.9 v -689"
         style="fill:#c8e1fb;fill-opacity:1;fill-rule:nonzero;stroke:none"
         id="path328" /><path
         d="m 20560.9,9320.4 v 0 689 l 221.6,-225.3 h -221.6 v -463.7 m 687.7,1257.6 -425.9,433 h 425.9 v -433"
         style="fill:#bcd8fa;fill-opacity:1;fill-rule:nonzero;stroke:none"
         id="path330" /><path
         d="m 21535.1,8330.2 v 0 688.9 l 120.5,-122.4 h -120.5 v -566.5 m 687.7,1257.5 -265.5,270 h 265.5 v -270"
         style="fill:#bcd8fa;fill-opacity:1;fill-rule:nonzero;stroke:none"
         id="path332" /><path
         d="m 21034.5,7511.4 c 73.3,26.8 144.8,57.8 214.1,92.6 v -4.4 c -70,-33.6 -141.4,-63 -214.1,-88.2 m 214.1,1110 -687.7,699 v 463.7 h 221.6 l 466.1,-473.8 v -688.9"
         style="fill:#b4d2f9;fill-opacity:1;fill-rule:nonzero;stroke:none"
         id="path334" /><path
         d="m 21535.1,7767.5 v 11 c 104.6,76 202,161.8 290.8,256.1 l -290.8,295.6 v 566.5 h 120.5 l 460.9,-468.5 c 39.4,69.3 74.9,141.2 106.3,215.5 v -46.8 c -95.3,-210.9 -228.4,-408.9 -399.3,-584 v 0 c -2,-2 -4,-4.1 -6.1,-6.2 -0.6,-0.6 -1.3,-1.3 -1.9,-1.9 -87.7,-88.9 -181.6,-167.9 -280.4,-237.3"
         style="fill:#b4d2f9;fill-opacity:1;fill-rule:nonzero;stroke:none"
         id="path336" /><path
         d="m 20513.9,7403.9 -225.7,229.4 v 1754 h -687.7 v -1055 l -272.7,277.2 v 413.3 998.8 h -687.7 v -713 l -338.3,343.8 c 11.7,129.8 35.8,258.6 72.3,384.7 106.9,361.5 308.2,678 572.7,924 L 20560.9,9320.4 V 7408 c -15.7,-1.6 -31.4,-2.9 -47,-4.1 m 734.7,200.1 v 1017.4 l 286.5,-291.2 v -551.7 c -90.4,-65.8 -186.2,-124.2 -286.5,-174.5"
         style="fill:#e2f0fd;fill-opacity:1;fill-rule:nonzero;stroke:none"
         id="path338" /><path
         d="m 19600.5,8332.3 v 0 1055 h 687.7 v -852.6 h -687.7 v -202.4"
         style="fill:#dbebfc;fill-opacity:1;fill-rule:nonzero;stroke:none"
         id="path340" /><path
         d="m 19327.8,9022.8 h -406.7 l -281,285.8 v 713 h 687.7 v -998.8"
         style="fill:#dbebfc;fill-opacity:1;fill-rule:nonzero;stroke:none"
         id="path342" /><path
         d="m 20560.9,7408 v 1912.4 l 687.7,-699 V 7604 c -69.3,-34.8 -140.8,-65.8 -214.1,-92.6 -153.8,-53.3 -312.9,-87.8 -473.6,-103.4"
         style="fill:#d6e7fc;fill-opacity:1;fill-rule:nonzero;stroke:none"
         id="path344" /><path
         d="m 20288.2,7633.3 -687.7,699 v 202.4 h 687.7 v -901.4"
         style="fill:#d6e7fc;fill-opacity:1;fill-rule:nonzero;stroke:none"
         id="path346" /><path
         d="m 21535.1,7778.5 v 551.7 l 290.8,-295.6 c -88.8,-94.3 -186.2,-180.1 -290.8,-256.1"
         style="fill:#d6e7fc;fill-opacity:1;fill-rule:nonzero;stroke:none"
         id="path348" /><path
         d="m 19327.8,8609.5 -406.7,413.3 h 406.7 v -413.3"
         style="fill:#d6e7fc;fill-opacity:1;fill-rule:nonzero;stroke:none"
         id="path350" /><path
         d="m 22222.8,8643.7 v 944 l 163.4,-166 c -1,-63.2 -4.8,-126.8 -11.6,-190.9 -22.3,-207.5 -74.5,-404.5 -151.8,-587.1 m -687.7,375.4 -286.5,291.2 v 473.8 793.9 l 708.7,-720.3 h -422.2 v -838.6 m -974.2,990.3 -1219.8,1239.9 c 100.3,56.4 205.6,104.5 314.9,143.5 218.5,76.6 447.8,115.1 677.4,115.5 l 489.3,-497.3 h -261.8 v -1001.6"
         style="fill:#e2f0fd;fill-opacity:1;fill-rule:nonzero;stroke:none"
         id="path352" /><path
         d="m 21248.6,9784.1 h -466.1 l -221.6,225.3 V 11011 h 261.8 l 425.9,-433 v -793.9"
         style="fill:#dbebfc;fill-opacity:1;fill-rule:nonzero;stroke:none"
         id="path354" /><path
         d="m 22222.8,8896.7 h -567.2 l -120.5,122.4 v 838.6 h 422.2 l 265.5,-270 v -691"
         style="fill:#dbebfc;fill-opacity:1;fill-rule:nonzero;stroke:none"
         id="path356" /><path
         d="m 21248.6,9310.3 -466.1,473.8 h 466.1 v -473.8"
         style="fill:#d6e7fc;fill-opacity:1;fill-rule:nonzero;stroke:none"
         id="path358" /><path
         d="m 22116.5,8428.2 -460.9,468.5 h 567.2 v -253 c -31.4,-74.3 -66.9,-146.2 -106.3,-215.5"
         style="fill:#d6e7fc;fill-opacity:1;fill-rule:nonzero;stroke:none"
         id="path360" /><path
         d="m 18917.2,7987.5 c -814.5,795.5 -833.9,2096.6 -43.4,2906.1 790.6,809.5 2091.8,820.9 2906.3,25.4 814.5,-795.4 834,-2096.5 43.4,-2906.1 -790.6,-809.5 -2091.7,-820.8 -2906.3,-25.4 m -186.8,-191.3 c 920.8,-899.3 2391.9,-886.4 3285.6,28.8 893.8,915.1 871.8,2386 -49,3285.3 -920.9,899.3 -2391.9,886.5 -3285.7,-28.7 -893.7,-915.1 -871.7,-2386.1 49.1,-3285.4"
         style="fill:#184655;fill-opacity:1;fill-rule:nonzero;stroke:none"
         id="path362" /><path
         d="m 20362.1,7271.1 c -552.2,0 -1106,208.2 -1533.5,625.7 -865,844.7 -885.6,2226.4 -46.1,3086 424.6,434.7 987.8,652.7 1552.8,652.7 552.1,0 1105.9,-208.2 1533.4,-625.7 865,-844.8 885.6,-2226.4 46.1,-3086 -424.5,-434.8 -987.8,-652.7 -1552.7,-652.7 m -2068.7,2195 c 0,-536.1 208.6,-1073 623.8,-1478.6 402.7,-393.2 924.1,-589.2 1444.1,-589.2 531.9,0 1062.4,205.3 1462.2,614.6 387.6,396.9 580.5,911.9 580.5,1427.5 v 0 c -0.1,536.2 -208.7,1073.1 -623.9,1478.6 -1.2,1.2 -2.4,2.4 -3.6,3.6 -1.2,1.1 -2.2,2.1 -3.3,3.2 l -0.2,0.1 c -401.6,388.6 -919.8,582.4 -1436.7,582.4 -0.1,0 -0.2,0 -0.2,0 v 0 c -0.9,0 -1.8,0 -2.7,0 -229.6,-0.4 -458.9,-38.9 -677.4,-115.5 -287,-100.7 -555.6,-267.2 -782.2,-499.2 -242.9,-248.7 -409.3,-543.9 -499.7,-856.5 -36.5,-126.1 -60.6,-254.9 -72.3,-384.7 -5.6,-61.9 -8.4,-124.1 -8.4,-186.3 v 0"
         style="fill:#103d46;fill-opacity:1;fill-rule:nonzero;stroke:none"
         id="path364" /><path
         d="m 25296.7,4516.5 126.2,130.9 c 126.2,130.9 122.4,339.2 -8.5,465.3 l -2345.1,2273.7 c -130.9,126.1 -339.2,122.3 -465.3,-8.5 l -126.3,-131 c -126.1,-130.8 -122.3,-339.1 8.5,-465.3 L 24831.3,4508 c 130.9,-126.2 339.2,-122.4 465.4,8.5"
         style="fill:#184655;fill-opacity:1;fill-rule:nonzero;stroke:none"
         id="path366" /><path
         d="m 25167.4,5804 c 0.6,4.6 0.6,9.2 0.2,13.8 -14.6,148.2 -137.7,1392.8 -158.4,1445.7 -18.7,47.8 -570.6,837.2 -570.6,837.2 l -271.3,-369.6 530.8,-708.1 c 11.9,-45 203.4,-885.1 203.4,-885.1 0,0 39.3,-153.2 56.8,-244.9 -8,-22.1 -15.9,-43 -22.8,-60.1 -17.6,-36.6 -38.4,-66.7 -57.2,-91.9 -23.7,-31.8 -63,-101.3 -67.8,-119.9 -5.6,-21.6 -15.8,-66.5 -21.5,-93.6 -5.7,-27.2 -13.6,-58.7 -14.9,-73.4 -0.8,-9 -10,-26.9 -17.2,-39.5 -10.6,-18.8 7.5,-40.9 28,-34.1 19.3,6.4 34.3,31.3 43.5,46.9 26.2,43.9 40.1,124.1 46.6,119.8 6.5,-4.2 29.4,-140.2 33,-155.6 3.6,-15.4 31.1,-173.3 46.6,-202.2 15.4,-28.9 36,-24 41.4,-6 4.7,15.6 -17.1,236.6 -17.1,236.6 0,0 -2.7,28.2 9.6,19.4 12.4,-8.8 32.5,-209.4 41.1,-238.8 8.6,-29.4 28.2,-44.9 44.8,-21.3 20.2,28.7 -14.5,241.5 -14.5,241.5 0,0 -3.9,26.7 7.5,24.2 11.4,-2.5 25.7,-173.4 34.6,-188.2 8.9,-14.8 31.4,-20.1 42.1,4.5 12.6,29.1 -20.1,218.7 -20.1,218.7 0,0 1.6,15.1 8.8,10.1 7.1,-5 29.7,-149.9 44.4,-163.3 12.4,-11.2 22.7,-0.3 22.7,-0.3 27.1,18.5 -14.4,156.3 -14,224.8 0.4,68.5 -31.3,145.5 -21.9,227.1 0.6,5.1 2.3,17.7 3.4,25.6"
         style="fill:#f8a492;fill-opacity:1;fill-rule:nonzero;stroke:none"
         id="path368" /><path
         d="m 24869.8,7600.7 -471.5,-316.5 c 0,0 -265.7,395.4 -408.4,536.2 -178.7,176.3 65.1,716.5 180.2,686 257.6,-68.4 699.7,-905.7 699.7,-905.7"
         style="fill:#f47458;fill-opacity:1;fill-rule:nonzero;stroke:none"
         id="path370" /><path
         d="M 25840,1170 H 2380 v -140 h 23460 v 140"
         style="fill:#0e2e35;fill-opacity:1;fill-rule:nonzero;stroke:none"
         id="path372" /></g></g></svg>
