<svg width="466" height="89" viewBox="0 0 466 89" fill="none" xmlns="http://www.w3.org/2000/svg">
<path d="M12.3274 88H0.696235L37.4676 1.37219H49.8863L86.8394 88H74.4207L63.2136 60.7395H34.5598L37.6494 51.6527H59.4578L43.2832 12.3975L12.3274 88ZM164.077 84.6076C157.091 87.2731 149.559 88.6058 141.482 88.6058C110.102 88.6058 94.4118 73.562 94.4118 43.4745C94.4118 15.0024 109.556 0.766404 139.846 0.766404C148.529 0.766404 156.606 1.97798 164.077 4.40114V14.0938C156.606 11.2667 148.933 9.85324 141.058 9.85324C117.432 9.85324 105.619 21.0603 105.619 43.4745C105.619 67.5041 117.25 79.519 140.512 79.519C144.228 79.519 148.347 79.0343 152.87 78.0651V48.6237H164.077V84.6076ZM195.639 1.37219V88H184.432V1.37219H195.639ZM283.539 84.9711C276.068 87.3942 267.99 88.6058 259.307 88.6058C229.018 88.6058 213.873 73.562 213.873 43.4745C213.873 15.0024 229.018 0.766404 259.307 0.766404C267.99 0.766404 276.068 1.97798 283.539 4.40114V14.0938C276.068 11.2667 268.394 9.85324 260.519 9.85324C236.893 9.85324 225.08 21.0603 225.08 43.4745C225.08 67.5041 236.893 79.519 260.519 79.519C268.394 79.519 276.068 78.1054 283.539 75.2784V84.9711ZM304.923 88H293.292L330.064 1.37219H342.482L379.435 88H367.017L355.81 60.7395H327.156L330.245 51.6527H352.054L335.879 12.3975L304.923 88ZM422.749 78.9132C443.952 78.9132 454.553 66.7166 454.553 42.3235C454.553 21.0805 443.952 10.459 422.749 10.459H402.455V78.9132H422.749ZM391.248 88V1.37219H422.749C451.423 1.37219 465.76 15.0226 465.76 42.3235C465.76 72.7745 451.423 88 422.749 88H391.248Z" fill="url(#paint0_linear)"/>
<defs>
<linearGradient id="paint0_linear" x1="235.5" y1="-24" x2="235.5" y2="115.574" gradientUnits="userSpaceOnUse">
<stop stop-color="#555555"/>
<stop offset="1" stop-color="#DD9201"/>
</linearGradient>
</defs>
</svg>
